<?xml version="1.0" encoding="UTF-8"?>
<svg version="1.1" xmlns="http://www.w3.org/2000/svg" width="1024" height="1024">
<path d="M0 0 C27.03422372 30.14315945 17.19487487 105.62000186 17 143 C16.67 143 16.34 143 16 143 C15.93530518 143.74757568 15.87061035 144.49515137 15.80395508 145.26538086 C11.44097598 194.34421443 -0.71206101 240.03209153 -35.05078125 276.8984375 C-36.79527706 278.77927667 -38.43467568 280.70618031 -40.0625 282.6875 C-43.9107602 287.212968 -48.28969472 292.09656491 -54 294 C-54 294.66 -54 295.32 -54 296 C-56.25814848 297.79826445 -58.51277739 299.4746801 -60.875 301.125 C-61.52597656 301.59292969 -62.17695312 302.06085938 -62.84765625 302.54296875 C-67.73587828 306 -67.73587828 306 -70 306 C-69.99129883 306.64976807 -69.98259766 307.29953613 -69.97363281 307.96899414 C-69.5837439 360.32086409 -81.72806494 416.15251189 -105.07421875 463.11132812 C-106.15023344 465.3064889 -107.18579415 467.51863182 -108.21875 469.734375 C-114.71285947 483.64023985 -114.71285947 483.64023985 -118.5625 490.25 C-121.55282067 495.61766703 -121.72626008 499.30246256 -120.125 505.25 C-119.75375 506.4875 -119.3825 507.725 -119 509 C-118.68079199 510.71043434 -118.38030143 512.42441765 -118.09375 514.140625 C-117.1562353 519.37587267 -115.92392659 524.41430066 -114.375 529.5 C-114.09068115 530.43432861 -113.8063623 531.36865723 -113.51342773 532.33129883 C-110.07586429 543.25027031 -106.05779466 553.96312991 -102.0625 564.6875 C-101.55804352 566.04246582 -101.55804352 566.04246582 -101.043396 567.42480469 C-97.4477799 577.05912511 -93.76050993 586.64740006 -89.90234375 596.1796875 C-86.13915033 605.50210895 -82.73397764 614.91973945 -79.5 624.4375 C-79.22374786 625.24717224 -78.94749573 626.05684448 -78.66287231 626.89105225 C-52.00132125 705.26684349 -52.00132125 705.26684349 -59.1875 725.3125 C-61.37119263 728.55038907 -62.2882945 728.9312194 -66 730 C-68.98108367 730.28168727 -71.94554557 730.27188105 -74.93815517 730.25726891 C-75.84371836 730.26077498 -76.74928155 730.26428105 -77.68228605 730.26789337 C-80.73278554 730.27723645 -83.78309533 730.27227654 -86.83360291 730.26742554 C-89.03628701 730.27116032 -91.23896979 730.27576115 -93.44165045 730.28115618 C-99.50722555 730.29342265 -105.57274565 730.29312143 -111.63833034 730.29076743 C-117.50398588 730.29040199 -123.3696223 730.29937545 -129.23527042 730.30799321 C-142.71662739 730.32734626 -156.19796917 730.33296189 -169.67933839 730.33410732 C-180.08821047 730.33502593 -190.49707659 730.33914011 -200.90594673 730.34550858 C-203.90063732 730.34730362 -206.89532792 730.34908325 -209.89001852 730.35085833 C-211.00670227 730.35152148 -211.00670227 730.35152148 -212.14594529 730.35219802 C-233.08884515 730.3645081 -254.03174293 730.37239896 -274.97464657 730.37151146 C-275.76441256 730.3714803 -276.55417854 730.37144914 -277.36787684 730.37141704 C-281.37087224 730.37125082 -285.37386765 730.37105274 -289.37686305 730.37084763 C-290.17189395 730.37080774 -290.96692485 730.37076785 -291.7860476 730.37072675 C-293.39379345 730.37064587 -295.0015393 730.37056228 -296.60928516 730.37047596 C-321.63041581 730.3692501 -346.65149228 730.38426943 -371.67260742 730.41162109 C-399.77348508 730.44232661 -427.87432714 730.45955455 -455.97522265 730.45769465 C-458.9702276 730.45754538 -461.96523255 730.45744797 -464.9602375 730.45738602 C-465.69770282 730.45736271 -466.43516814 730.4573394 -467.19498089 730.45731538 C-479.07401935 730.45725378 -490.95301086 730.47003732 -502.83203536 730.48725055 C-514.76512016 730.50418481 -526.69813608 730.50619819 -538.63122623 730.4930319 C-545.09874249 730.48648085 -551.56608815 730.48646207 -558.03358841 730.5037384 C-563.94960989 730.51937953 -569.86532423 730.51669757 -575.78133781 730.49917014 C-577.92596597 730.49608043 -580.07061655 730.49980603 -582.2152183 730.51089029 C-585.12252284 730.52492596 -588.02873723 730.51449224 -590.93600368 730.49777794 C-591.77553283 730.5077143 -592.61506198 730.51765066 -593.4800314 730.52788812 C-598.76270106 730.46334224 -601.83590206 729.55066043 -606 726 C-607.96933498 721.89157184 -608.20878412 718.45041187 -607.9765625 713.9453125 C-607.925 712.83671875 -607.8734375 711.728125 -607.8203125 710.5859375 C-607.75585938 709.44382812 -607.69140625 708.30171875 -607.625 707.125 C-607.56828125 705.9596875 -607.5115625 704.794375 -607.453125 703.59375 C-607.31221086 700.72849588 -607.16085254 697.86419248 -607 695 C-606.34 695 -605.68 695 -605 695 C-604.92265625 693.71351563 -604.8453125 692.42703125 -604.765625 691.1015625 C-604.0329881 683.81874189 -602.16060202 676.81937304 -600.35400391 669.74365234 C-599.75710033 667.40284454 -599.17260923 665.05920633 -598.58984375 662.71484375 C-596.4897807 654.35351419 -594.21134164 646.09951877 -591.44842529 637.92977905 C-590.09211242 634.43908346 -590.09211242 634.43908346 -591 631 C-590.55487061 630.62810547 -590.10974121 630.25621094 -589.65112305 629.87304688 C-587.50621279 627.43984393 -586.69558604 625.07719672 -585.58203125 622.03125 C-585.13577393 620.82815186 -584.6895166 619.62505371 -584.22973633 618.38549805 C-583.99815826 617.75042328 -583.7665802 617.11534851 -583.52798462 616.46102905 C-582.32793501 613.17188478 -581.10148507 609.89264183 -579.875 606.61328125 C-579.63195633 605.96204788 -579.38891266 605.31081451 -579.13850403 604.6398468 C-576.01735538 596.31750301 -572.54217058 588.15003719 -569 580 C-570.32 580 -571.64 580 -573 580 C-573.33 580.66 -573.66 581.32 -574 582 C-582.3252089 583.54170535 -591.61792744 584.78837139 -599 580 C-598.50804926 575.64055958 -597.29181375 573.90581483 -594.0625 571 C-566.60407721 544.67478196 -550.34874158 502.66232821 -549 465 C-548.76180179 453.00231361 -548.8731978 440.99841419 -549 429 C-549.66 429 -550.32 429 -551 429 C-550.67 431.64 -550.34 434.28 -550 437 C-550.66 437 -551.32 437 -552 437 C-551.95746094 438.25039063 -551.91492188 439.50078125 -551.87109375 440.7890625 C-551.87886997 446.47903138 -552.88302843 451.82401631 -554.0625 457.375 C-554.28147949 458.4155957 -554.50045898 459.45619141 -554.72607422 460.52832031 C-560.47297134 486.50635767 -560.47297134 486.50635767 -567 493 C-571.85315032 493.71603857 -573.90679599 493.65592241 -578.125 491.125 C-583.29062873 486.15750497 -587.61858904 479.24680824 -588 472 C-588.66 472 -589.32 472 -590 472 C-589.896875 473.27875 -589.79375 474.5575 -589.6875 475.875 C-589.6875 488.82887966 -594.89457094 505.61002628 -604 515 C-606.60469709 517.00361314 -608.071342 518 -611.375 518 C-628.38725269 511.51914183 -640.0943872 487.79733149 -647.1171875 472.25 C-648 470 -648 470 -648 468 C-648.99 468 -649.98 468 -651 468 C-651 467.01 -651 466.02 -651 465 C-651.66 464.01 -652.32 463.02 -653 462 C-652.34 462 -651.68 462 -651 462 C-651.33 461.401875 -651.66 460.80375 -652 460.1875 C-653 458 -653 458 -653 455 C-653.66 454.67 -654.32 454.34 -655 454 C-655.52734375 452.171875 -655.52734375 452.171875 -655.9375 449.75 C-656.61852444 445.94051954 -657.45593171 442.24222909 -658.4375 438.5 C-661.03592843 427.53622288 -661.83133312 416.1868852 -663 405 C-663.39791748 405.70084717 -663.79583496 406.40169434 -664.20581055 407.1237793 C-666.02474657 410.31649416 -667.85597115 413.50199378 -669.6875 416.6875 C-670.31333984 417.79029297 -670.93917969 418.89308594 -671.58398438 420.02929688 C-672.50727539 421.6293457 -672.50727539 421.6293457 -673.44921875 423.26171875 C-674.00955811 424.24100342 -674.56989746 425.22028809 -675.1472168 426.22924805 C-677.69250156 430.0356042 -680.1943843 433.3981281 -684.625 434.875 C-687 435 -687 435 -690 434 C-690.71023028 431.69175158 -691.01261364 429.41696017 -691.375 427.03125 C-691.58125 426.3609375 -691.7875 425.690625 -692 425 C-692.99 424.67 -693.98 424.34 -695 424 C-694.34 424 -693.68 424 -693 424 C-693.16081055 423.16855469 -693.32162109 422.33710937 -693.48730469 421.48046875 C-694.03831877 417.73987027 -694.17895231 414.08385404 -694.203125 410.3125 C-694.21018463 409.58176773 -694.21724426 408.85103546 -694.22451782 408.09815979 C-694.3457597 391.81933845 -694.06618724 376.03894169 -691 360 C-690.80132324 358.90204102 -690.60264648 357.80408203 -690.39794922 356.67285156 C-685.42475999 329.42648 -677.05724161 303.38062229 -666 278 C-667.29244623 278.99899225 -668.58389161 279.99927931 -669.875 281 C-670.68839844 281.63035156 -671.50179687 282.26070313 -672.33984375 282.91015625 C-675.91483854 285.71870575 -679.42632316 288.60355604 -682.93359375 291.49609375 C-685 293 -685 293 -687 293 C-687.33 293.66 -687.66 294.32 -688 295 C-692.73493976 292.69323448 -692.73493976 292.69323448 -693.8125 289.875 C-694.37561896 281.24050931 -694.37561896 281.24050931 -694 278 C-693.34 277.34 -692.68 276.68 -692 276 C-691.06801387 273.17436052 -690.20690076 270.3548748 -689.375 267.5 C-686.34338138 257.59005234 -682.52634004 248.314194 -678 239 C-677.5477002 238.06414062 -677.09540039 237.12828125 -676.62939453 236.1640625 C-663.91979452 210.14507412 -648.21531428 185.12579307 -627.0859375 165.078125 C-624.85247907 162.85303158 -622.96469138 160.46278215 -621 158 C-615.91297741 152.96018875 -610.0927585 148.69114072 -604.39282227 144.3762207 C-602.14055361 142.66877439 -600.00138679 141.00138679 -598 139 C-595.91746733 137.69528073 -593.80206742 136.45743436 -591.6796875 135.21875 C-591.12539063 134.8165625 -590.57109375 134.414375 -590 134 C-590 133.34 -590 132.68 -590 132 C-589.27167969 131.88527344 -588.54335938 131.77054688 -587.79296875 131.65234375 C-584.92631123 130.98278878 -582.8586721 130.01930814 -580.3125 128.5625 C-579.54550781 128.13066406 -578.77851562 127.69882812 -577.98828125 127.25390625 C-575.87829172 126.02556506 -575.87829172 126.02556506 -574 124 C-571.36587655 122.85179234 -568.72650879 121.90883626 -566 121 C-581.02007164 114.2139941 -601.74735185 116.39293872 -618 116 C-619.14023098 112.57930706 -619.12770913 111.38312738 -618 108 C-599.62689411 86.2863294 -563.4690353 79.52626546 -536.80078125 76.4765625 C-533.18922792 76.18255266 -529.62324615 76.04830995 -526 76 C-525.1970752 75.98630371 -524.39415039 75.97260742 -523.56689453 75.95849609 C-510.34586149 75.7568152 -497.19541904 76.19854288 -484 77 C-488.81498447 71.3663457 -493.82526319 65.99221991 -499.0625 60.75 C-499.74376953 60.05648437 -500.42503906 59.36296875 -501.12695312 58.6484375 C-504.0979344 55.66889432 -506.93425968 52.90164258 -510.49609375 50.640625 C-511.73552734 49.82851562 -511.73552734 49.82851562 -513 49 C-513 48.34 -513 47.68 -513 47 C-513.5775 46.731875 -514.155 46.46375 -514.75 46.1875 C-519.11501039 43.88374452 -522.33000495 41.19570651 -525 37 C-525.5625 33.4375 -525.5625 33.4375 -525 30 C-521.75005012 25.85351222 -517.4685501 25.00308225 -512.47265625 24.25 C-500.70731184 23.40300108 -489.08886203 24.84628071 -477.61328125 27.37890625 C-473.62226263 28.06492999 -470.04051812 28.10246077 -466 28 C-466 28.66 -466 29.32 -466 30 C-464.47246094 30.4021875 -464.47246094 30.4021875 -462.9140625 30.8125 C-451.74574477 33.85961873 -441.40381762 37.94232546 -431 43 C-430.15356934 43.41024414 -429.30713867 43.82048828 -428.43505859 44.24316406 C-414.46821176 51.09365593 -400.69346279 58.70714508 -389.28125 69.42578125 C-383.0116394 75.22200818 -378.24291089 79.02698957 -369.4375 78.8125 C-366.92468096 78.67627067 -364.42669906 78.47742483 -361.92089844 78.24511719 C-356.14655333 77.76054326 -350.35263666 77.62926064 -344.5625 77.4375 C-343.27996338 77.39117432 -341.99742676 77.34484863 -340.67602539 77.29711914 C-317.94490211 76.54711825 -295.54471953 78.1583184 -273 81 C-271.67282959 81.15807129 -271.67282959 81.15807129 -270.31884766 81.31933594 C-259.25336189 82.66154042 -248.82985095 85.27845371 -238.18066406 88.57519531 C-234.09347418 89.83900645 -230.29955112 90.96033612 -226.046875 91.5234375 C-222.63820063 92.05658913 -221.65889093 92.90600165 -219 95 C-216.01154146 96.41910042 -212.9414238 97.6352556 -209.875 98.875 C-190.57740586 106.84518828 -190.57740586 106.84518828 -189 110 C-188.00419922 110.36738281 -188.00419922 110.36738281 -186.98828125 110.7421875 C-182.61913599 112.58122642 -179.01692889 115.35805306 -175.1875 118.125 C-174.39923828 118.68832031 -173.61097656 119.25164062 -172.79882812 119.83203125 C-170.86253169 121.21677658 -168.92977359 122.60618627 -167 124 C-163.3907836 120.48780555 -160.0876757 116.81703505 -156.875 112.9375 C-151.9341623 107.0420684 -146.82866482 101.32640334 -141.58203125 95.69970703 C-139.78838733 93.77264701 -138.00388703 91.83728562 -136.21875 89.90234375 C-134.89622331 88.47620076 -133.57330947 87.05041668 -132.25 85.625 C-131.32912598 84.62569458 -131.32912598 84.62569458 -130.38964844 83.60620117 C-126.94655736 79.91485488 -123.4095544 76.50284054 -119.52050781 73.2824707 C-116.66174017 70.87124617 -114.09996216 68.15525127 -111.5234375 65.44921875 C-107.20861645 61.00147668 -102.56157816 57.11961352 -97.734375 53.23828125 C-95.37330922 51.30558026 -93.11882708 49.3155385 -90.875 47.25 C-75.78875823 33.72070133 -58.62905276 22.11068031 -41.5625 11.25 C-40.7389502 10.72398193 -39.91540039 10.19796387 -39.06689453 9.65600586 C-38.3036084 9.17655518 -37.54032227 8.69710449 -36.75390625 8.203125 C-35.73792358 7.56358887 -35.73792358 7.56358887 -34.70141602 6.91113281 C-33 6 -33 6 -31 6 C-30.67 5.34 -30.34 4.68 -30 4 C-27.59337432 2.89353917 -25.21593499 1.89183077 -22.75 0.9375 C-22.08097656 0.66873047 -21.41195312 0.39996094 -20.72265625 0.12304688 C-13.34378218 -2.78356265 -7.16481779 -4.28771747 0 0 Z M-333 93 C-333 183.75 -333 274.5 -333 368 C-321.12 369.485 -321.12 369.485 -309 371 C-298.36473174 373.11196816 -290.59934731 375.43506204 -282 382 C-281.00226563 382.70962891 -281.00226563 382.70962891 -279.984375 383.43359375 C-273.32792981 388.54169191 -268.58977048 396.23448297 -267.1875 404.53125 C-266.17684349 417.8382274 -269.79974318 428.9362847 -278.44921875 439.0625 C-280.07287442 440.92611744 -280.07287442 440.92611744 -280.95703125 443.125 C-282.28542892 445.51313064 -283.55010219 445.87486175 -286 447 C-287.27918975 448.13458569 -288.52635391 449.30572141 -289.75 450.5 C-299.148118 459.02964505 -310.82850629 465.12444538 -322 471 C-321.66759614 492.46870422 -318.58809514 508.1494043 -302.82836914 523.71508789 C-294.51478994 531.53352104 -284.48693097 536.66405739 -274 541 C-273.23171875 541.33128906 -272.4634375 541.66257812 -271.671875 542.00390625 C-263.02949153 545.22584745 -253.23745443 547.64471329 -244 548 C-242.845 548.0515625 -241.69 548.103125 -240.5 548.15625 C-214.2344549 548.94582171 -189.73403258 540.32426622 -170 523 C-168.71029297 521.98486328 -168.71029297 521.98486328 -167.39453125 520.94921875 C-130.86501328 491.21311848 -108.3354555 426.54035373 -102.69091797 381.53564453 C-102.54392202 380.03171404 -102.39987936 378.52749095 -102.25927734 377.02294922 C-102 375 -102 375 -101.03515625 371.63671875 C-99.64271729 366.74479168 -99.04882252 361.85419815 -98.4375 356.8125 C-98.24353638 355.22997437 -98.24353638 355.22997437 -98.0456543 353.61547852 C-96.88701183 343.7525623 -96.26875 333.92359371 -96 324 C-95.95875 322.81535156 -95.9175 321.63070312 -95.875 320.41015625 C-95.39636559 294.29466616 -97.68393836 265.94818492 -106 241 C-108.16770633 233.48320537 -108.16770633 233.48320537 -109.0078125 230.51171875 C-110.94887533 222.68971863 -110.94887533 222.68971863 -115 216 C-115.44975812 214.67718201 -115.87048469 213.34444839 -116.27734375 212.0078125 C-117.90874567 207.01798983 -120.08957747 202.49642462 -122.5625 197.875 C-123.00158691 197.05169189 -123.44067383 196.22838379 -123.89306641 195.38012695 C-132.22596589 180.00900431 -142.23879343 165.01691971 -156 154 C-157.15176944 152.84823056 -158.14676579 151.5478455 -159.15625 150.26953125 C-161.93989551 146.92457041 -165.05094502 144.32015633 -168.5 141.6875 C-169.41749023 140.97920044 -169.41749023 140.97920044 -170.35351562 140.2565918 C-189.88464515 125.30401362 -211.05077935 113.29722368 -234.5625 105.9375 C-235.41263672 105.66873047 -236.26277344 105.39996094 -237.13867188 105.12304688 C-240.74333655 103.9893445 -244.32517687 102.88449221 -248 102 C-248.78487793 101.81107178 -249.56975586 101.62214355 -250.37841797 101.42749023 C-253.20902861 100.75724944 -256.04183318 100.09684847 -258.875 99.4375 C-259.85597656 99.20353516 -260.83695313 98.96957031 -261.84765625 98.72851562 C-266.64562143 97.6180554 -271.03694232 96.67193348 -276 97 C-276 97.66 -276 98.32 -276 99 C-276.495 98.505 -276.495 98.505 -277 98 C-277 97.34 -277 96.68 -277 96 C-295.86085698 93.4770542 -313.71682057 93 -333 93 Z M-469.50390625 282.48046875 C-474.08639664 287.58276402 -476.18254205 293.2851668 -477 300 C-476.51349226 308.58338664 -474.461975 316.64312506 -468.17578125 322.78125 C-459.81498719 329.48302599 -451.64190166 331.15047585 -441 330 C-433.6297457 328.10672367 -426.74970382 323.32323374 -422.6484375 316.875 C-418.74062981 309.22806697 -417.70946329 301.74576535 -419.61328125 293.26953125 C-422.42029066 285.29366752 -427.7217815 279.49999614 -435.1875 275.5625 C-447.78723145 269.99802716 -459.98938638 273.11422711 -469.50390625 282.48046875 Z M-350 371 C-351.01578125 370.97808594 -352.0315625 370.95617187 -353.078125 370.93359375 C-357.25380465 371.00429749 -360.80991061 371.80178662 -364.75 373.0625 C-365.79498657 373.39531982 -365.79498657 373.39531982 -366.86108398 373.73486328 C-379.13722359 377.87263364 -388.81204867 385.26131919 -394.95703125 396.69140625 C-398.81235143 405.22509248 -399.51945494 414.22064461 -397.125 423.328125 C-394.48831941 430.0932923 -390.83987518 435.62236091 -386 441 C-385.33097656 441.75023437 -384.66195312 442.50046875 -383.97265625 443.2734375 C-372.9647068 454.93828086 -358.09477793 462.8677755 -343 468 C-342.11778929 486.49375051 -344.90502602 503.92523384 -357.3125 518.375 C-375.81727505 537.50705556 -399.1417183 544.9767179 -424.56835938 550.34912109 C-426.92533471 550.98001429 -428.86818074 551.82675488 -431 553 C-413.25524556 559.65428291 -392.43162109 556.12174373 -375.46875 548.66015625 C-366.07409285 544.16383948 -358.41847487 538.26985768 -351 531 C-350.30003906 530.33613281 -349.60007812 529.67226563 -348.87890625 528.98828125 C-339.68473482 519.57904149 -333.86308501 507.06723956 -333.88647461 493.93066406 C-333.88632858 493.23903671 -333.88618256 492.54740936 -333.8860321 491.83482361 C-333.88672557 489.56172486 -333.89449203 487.28870933 -333.90234375 485.015625 C-333.90421014 483.43332972 -333.905633 481.85103386 -333.90663147 480.26873779 C-333.91044088 476.11316316 -333.92025662 471.95762375 -333.93133545 467.80206299 C-333.94157725 463.56205724 -333.94613668 459.32204581 -333.95117188 455.08203125 C-333.96073909 447.64868878 -333.9752481 440.21537002 -333.99327087 432.78204346 C-334.04388869 411.85496456 -334 390.9271485 -334 370 C-335.299375 370 -336.59875 370 -337.9375 370 C-340.62736496 370 -343.31058111 369.99352956 -346 369.9375 C-348.88202102 369.65127929 -348.88202102 369.65127929 -350 371 Z M-332 514 C-333.19960121 520.570826 -333.12713266 527.05044374 -333.09765625 533.71484375 C-333.0962413 534.92572159 -333.09482635 536.13659943 -333.09336853 537.38417053 C-333.08779026 541.23530594 -333.0752417 545.08638229 -333.0625 548.9375 C-333.05748219 551.5553377 -333.05291978 554.17317631 -333.04882812 556.79101562 C-333.03782794 563.19403042 -333.02111144 569.59701099 -333 576 C-331.07154935 575.85214671 -329.1433777 575.70065126 -327.21533203 575.54760742 C-326.14155304 575.46363205 -325.06777405 575.37965668 -323.9614563 575.2931366 C-313.04501382 574.21258417 -301.95615896 568.48814961 -294 561 C-292.60644236 559.04148656 -291.25717453 557.04872887 -290 555 C-290.66 554.34 -291.32 553.68 -292 553 C-292.4021875 552.54753906 -292.804375 552.09507812 -293.21875 551.62890625 C-295.72788143 549.33437158 -298.60880583 547.69911495 -301.5 545.9375 C-312.39472899 539.12084487 -321.33089495 530.98047079 -327.6875 519.6875 C-328.76430722 517.77599424 -329.86069145 515.87492509 -331 514 C-331.33 514 -331.66 514 -332 514 Z M-142 519 C-142.62003906 519.72703125 -143.24007812 520.4540625 -143.87890625 521.203125 C-164.73394707 545.10454302 -194.19788848 562.02677842 -226.25 564.22265625 C-229.64875583 564.33902451 -233.03677278 564.37904424 -236.4375 564.375 C-237.64656006 564.37556396 -238.85562012 564.37612793 -240.10131836 564.37670898 C-251.93138055 564.23399019 -263.73556966 562.75481011 -275 559 C-275.51949219 559.66386719 -276.03898437 560.32773437 -276.57421875 561.01171875 C-280.18181839 565.57956673 -283.71315578 570.04291303 -288 574 C-288.67675781 574.68449219 -288.67675781 574.68449219 -289.3671875 575.3828125 C-298.49484239 584.0563552 -310.06268994 587.71391472 -322.08984375 590.17578125 C-325.76565924 590.9506035 -329.38794868 591.96798534 -333 593 C-333 631.94 -333 670.88 -333 711 C-329.49644275 711.70071145 -326.95794393 712.12478926 -323.51165295 712.12304783 C-322.20089693 712.1260344 -322.20089693 712.1260344 -320.86366099 712.12908131 C-319.91327002 712.12616847 -318.96287905 712.12325563 -317.98368835 712.12025452 C-316.96669524 712.12110894 -315.94970214 712.12196337 -314.90189105 712.12284368 C-311.49015886 712.12449233 -308.07847572 712.11898712 -304.66674805 712.11352539 C-302.22269187 712.11324336 -299.7786356 712.11340156 -297.33457947 712.1139679 C-292.0706335 712.1141957 -286.80670283 712.1113571 -281.54276085 712.10573006 C-273.93200584 712.09759962 -266.32125683 712.09499825 -258.71049795 712.09374207 C-246.3622524 712.09155398 -234.01401345 712.08490047 -221.66577148 712.07543945 C-209.67130567 712.06625906 -197.67684166 712.05918129 -185.68237305 712.05493164 C-184.94291176 712.05466892 -184.20345048 712.05440619 -183.44158127 712.05413551 C-179.73188478 712.05283046 -176.02218828 712.05156676 -172.31249177 712.05032361 C-141.54165638 712.03995856 -110.77082919 712.02227245 -80 712 C-79.99315186 710.74035934 -79.98630371 709.48071869 -79.97924805 708.1829071 C-79.97539597 707.47435924 -79.97154388 706.76581137 -79.96757507 706.03579235 C-80.04408385 701.23220428 -81.11816796 696.5204005 -82 691.8125 C-82.21640137 690.6486377 -82.43280273 689.48477539 -82.65576172 688.28564453 C-86.52178443 668.3717801 -92.34135588 648.89829345 -99.29296875 629.85546875 C-99.60269119 629.00559891 -99.91241364 628.15572906 -100.23152161 627.28010559 C-100.8855105 625.48734803 -101.5401993 623.69484565 -102.19555664 621.90258789 C-103.17061551 619.23371521 -104.14106929 616.56319889 -105.11132812 613.89257812 C-108.64981396 604.18860821 -112.32965577 594.55756263 -116.19462585 584.97886658 C-118.90014827 578.27338851 -121.49722165 571.53404294 -124 564.75 C-124.41443359 563.63101318 -124.82886719 562.51202637 -125.25585938 561.35913086 C-128.52036664 552.47109739 -131.56951436 543.51991765 -134.48828125 534.51269531 C-134.79121094 533.58166992 -135.09414063 532.65064453 -135.40625 531.69140625 C-135.66728516 530.87873291 -135.92832031 530.06605957 -136.19726562 529.22875977 C-136.98293179 527.0473892 -137.95066719 525.06434413 -139 523 C-139.33 522.01 -139.66 521.02 -140 520 C-140.99 519.505 -140.99 519.505 -142 519 Z " fill="#191A1A" transform="translate(847,148)"/>
<path d="M0 0 C7.53415653 5.85556207 10.56475314 12.36153018 12.875 21.4375 C13.20314984 30.78977031 10.84976159 38.63937284 5 46 C-2.37262 53.08848252 -10.84956365 56.04282885 -21 56 C-24.07740472 55.56174675 -27.00403471 54.8128588 -30 54 C-31.99708656 53.64963394 -33.99598989 53.30830925 -36 53 C-36 52.34 -36 51.68 -36 51 C-37.19012534 49.93390757 -38.42878608 48.92167003 -39.6875 47.9375 C-45.78463654 42.77006868 -49.52272912 36.33604498 -50.23828125 28.3359375 C-50.47426033 18.92161416 -48.70838683 11.93585512 -42.625 4.625 C-31.03141167 -7.50555452 -13.95035156 -9.30023438 0 0 Z " fill="#1A1A1A" transform="translate(645,425)"/>
<path d="M0 0 C177.87 0.33 355.74 0.66 539 1 C538.34 1.99 537.68 2.98 537 4 C534.071694 4.30013397 531.3540432 4.40172835 528.42260838 4.37752342 C527.51960793 4.38188374 526.61660748 4.38624407 525.68624339 4.39073652 C522.62633846 4.40178269 519.56687574 4.3912274 516.50697327 4.38095093 C514.30473947 4.3844038 512.1025074 4.38916585 509.90027899 4.39513266 C503.82210259 4.40772334 497.74406646 4.40143579 491.66588938 4.39217401 C485.79244744 4.38610977 479.919036 4.39406404 474.04559825 4.4016161 C461.28503437 4.41744189 448.52451545 4.41603276 435.76394725 4.40737936 C424.59658315 4.39984324 413.42923555 4.39785765 402.26186943 4.4014473 C401.5221331 4.40167645 400.78239678 4.40190561 400.0202442 4.40214171 C397.01767067 4.40307567 394.01509716 4.40403086 391.01252366 4.405021 C362.82449735 4.41420568 334.63649974 4.40586563 306.44847787 4.38973031 C281.38759292 4.37549412 256.32675369 4.37676525 231.26586914 4.39111328 C203.13207991 4.40716666 174.99831605 4.41355292 146.86452287 4.40427649 C143.86699737 4.40331429 140.86947185 4.40237577 137.87194633 4.4014473 C137.13383925 4.40121006 136.39573216 4.40097283 135.63525819 4.40072841 C124.473726 4.39731149 113.31221211 4.40131521 102.15068245 4.40888596 C89.46270515 4.41744898 76.77477999 4.41535091 64.08680923 4.39904372 C57.60756492 4.39113516 51.12841364 4.38811325 44.64916992 4.39799118 C38.72582362 4.40688533 32.80265718 4.40209296 26.87932735 4.38605852 C24.72860955 4.38268819 22.57787678 4.38445479 20.4271685 4.39168589 C17.51896935 4.40071894 14.61139827 4.39154353 11.70323277 4.37752342 C10.85496504 4.38454692 10.00669731 4.39157042 9.13272449 4.39880675 C3.40793511 4.34308849 3.40793511 4.34308849 1.26285514 2.53899703 C0 1 0 1 0 0 Z " fill="#212020" transform="translate(244,874)"/>
<path d="M0 0 C0.495 1.485 0.495 1.485 1 3 C-16.325 2.505 -16.325 2.505 -34 2 C-33.67 92.42 -33.34 182.84 -33 276 C-30.69 276.33 -28.38 276.66 -26 277 C-26 277.33 -26 277.66 -26 278 C-28.64 278 -31.28 278 -34 278 C-33.99208089 278.68268102 -33.98416178 279.36536203 -33.97600269 280.06873035 C-33.7844873 296.66823773 -33.60963824 313.26782805 -33.45341206 329.86770344 C-33.3774594 337.89522998 -33.29583533 345.92262451 -33.20092773 353.94995117 C-33.1182352 360.94533353 -33.04611443 367.94073066 -32.98676747 374.93635148 C-32.95496265 378.64162501 -32.91781119 382.34667316 -32.86800575 386.05175209 C-32.81264777 390.18460845 -32.780891 394.31731889 -32.7512207 398.45043945 C-32.73108414 399.68330185 -32.71094757 400.91616425 -32.69020081 402.18638611 C-32.68591064 403.30959259 -32.68162048 404.43279907 -32.67720032 405.59004211 C-32.66199073 407.05707565 -32.66199073 407.05707565 -32.64647388 408.55374622 C-33.05650292 411.39097669 -33.7817554 412.25835572 -36 414 C-35.99777939 413.09211227 -35.99555878 412.18422455 -35.99327087 411.24882507 C-35.97324742 402.69968086 -35.95801535 394.15054451 -35.94818783 385.60138226 C-35.9429656 381.20600574 -35.93587987 376.81064858 -35.92456055 372.4152832 C-35.91370829 368.17482627 -35.90771818 363.93438797 -35.90512276 359.69391823 C-35.90327274 358.07477335 -35.8996602 356.4556295 -35.89426994 354.83649254 C-35.88702852 352.57155515 -35.88601038 350.30669511 -35.88647461 348.04174805 C-35.88314369 346.10648506 -35.88314369 346.10648506 -35.87974548 344.13212585 C-35.85502131 340.96893921 -35.85502131 340.96893921 -37 338 C-36.34 338 -35.68 338 -35 338 C-35.03552979 337.13648926 -35.07105957 336.27297852 -35.10766602 335.38330078 C-35.85580651 316.51617179 -36.09041789 297.86843284 -35 279 C-35.33 279.66 -35.66 280.32 -36 281 C-37.60332791 281.08121924 -39.20784026 281.13929134 -40.8125 281.1875 C-41.70582031 281.22230469 -42.59914063 281.25710938 -43.51953125 281.29296875 C-46 281 -46 281 -49 278 C-44.38 278 -39.76 278 -35 278 C-35 186.59 -35 95.18 -35 1 C-6 0 -6 0 0 0 Z " fill="#242525" transform="translate(548,239)"/>
<path d="M0 0 C2 3 2 3 1.6875 5.125 C1 7 1 7 0 8 C-2.88256603 8.0979454 -5.74117583 8.12992191 -8.62416077 8.12025452 C-9.997516 8.12153615 -9.997516 8.12153615 -11.39861578 8.12284368 C-14.49110506 8.12450129 -17.58354104 8.11897254 -20.67602539 8.11352539 C-22.88304137 8.11324355 -25.09005744 8.11340118 -27.29707336 8.1139679 C-33.30922725 8.11425601 -39.32136137 8.10835711 -45.33351064 8.10139394 C-51.60893101 8.09516263 -57.88435179 8.09455678 -64.15977478 8.09336853 C-74.69937477 8.09060884 -85.23896825 8.08435333 -95.77856445 8.07543945 C-106.63631148 8.06626602 -117.49405653 8.05918485 -128.35180664 8.05493164 C-129.35504307 8.05453756 -129.35504307 8.05453756 -130.3785469 8.05413551 C-133.73370822 8.05283051 -137.08886954 8.05156679 -140.44403088 8.05032361 C-168.29602566 8.03985772 -196.14801232 8.022257 -224 8 C-223.67 7.34 -223.34 6.68 -223 6 C-180.03585639 4.87125205 -137.0814479 4.84381564 -94.10581756 4.87143159 C-86.47394975 4.87581183 -78.84209822 4.87263976 -71.21023142 4.8678025 C-63.75352262 4.86326864 -56.29682087 4.86261941 -48.84011114 4.86524117 C-44.42750814 4.86679067 -40.01491626 4.86703252 -35.602314 4.86370468 C-31.49607408 4.86081886 -27.38986504 4.86281461 -23.28362846 4.86859894 C-21.78320174 4.86991871 -20.2827724 4.86954572 -18.78234673 4.86733627 C-16.73341306 4.86459635 -14.68457804 4.86803942 -12.63565063 4.87301636 C-11.49195322 4.87339338 -10.34825581 4.87377041 -9.16990089 4.87415886 C-6.03383996 4.9986566 -3.08029601 5.41371685 0 6 C0 4.02 0 2.04 0 0 Z " fill="#070708" transform="translate(768,854)"/>
<path d="M0 0 C0.66 0 1.32 0 2 0 C2 0.99 2 1.98 2 3 C4.31 3.33 6.62 3.66 9 4 C9 4.33 9 4.66 9 5 C6.36 5 3.72 5 1 5 C1.00791911 5.68268102 1.01583822 6.36536203 1.02399731 7.06873035 C1.2155127 23.66823773 1.39036176 40.26782805 1.54658794 56.86770344 C1.6225406 64.89522998 1.70416467 72.92262451 1.79907227 80.94995117 C1.8817648 87.94533353 1.95388557 94.94073066 2.01323253 101.93635148 C2.04503735 105.64162501 2.08218881 109.34667316 2.13199425 113.05175209 C2.18735223 117.18460845 2.219109 121.31731889 2.2487793 125.45043945 C2.26891586 126.68330185 2.28905243 127.91616425 2.30979919 129.18638611 C2.31408936 130.30959259 2.31837952 131.43279907 2.32279968 132.59004211 C2.33800927 134.05707565 2.33800927 134.05707565 2.35352612 135.55374622 C1.94349708 138.39097669 1.2182446 139.25835572 -1 141 C-0.99777939 140.09211227 -0.99555878 139.18422455 -0.99327087 138.24882507 C-0.97324742 129.69968086 -0.95801535 121.15054451 -0.94818783 112.60138226 C-0.9429656 108.20600574 -0.93587987 103.81064858 -0.92456055 99.4152832 C-0.91370829 95.17482627 -0.90771818 90.93438797 -0.90512276 86.69391823 C-0.90327274 85.07477335 -0.8996602 83.4556295 -0.89426994 81.83649254 C-0.88702852 79.57155515 -0.88601038 77.30669511 -0.88647461 75.04174805 C-0.88314369 73.10648506 -0.88314369 73.10648506 -0.87974548 71.13212585 C-0.85502131 67.96893921 -0.85502131 67.96893921 -2 65 C-1.34 65 -0.68 65 0 65 C-0.05329468 63.70473389 -0.05329468 63.70473389 -0.10766602 62.38330078 C-0.85580651 43.51617179 -1.09041789 24.86843284 0 6 C-0.33 6.66 -0.66 7.32 -1 8 C-2.60332791 8.08121924 -4.20784026 8.13929134 -5.8125 8.1875 C-6.70582031 8.22230469 -7.59914063 8.25710938 -8.51953125 8.29296875 C-11 8 -11 8 -14 5 C-9.38 5 -4.76 5 0 5 C0 3.35 0 1.7 0 0 Z " fill="#434242" transform="translate(513,512)"/>
<path d="M0 0 C7.425 0.99 7.425 0.99 15 2 C15 2.33 15 2.66 15 3 C11.04 3.66 7.08 4.32 3 5 C2.67 43.28 2.34 81.56 2 121 C2.66 121.33 3.32 121.66 4 122 C3.505 122.99 3.505 122.99 3 124 C2.34 124 1.68 124 1 124 C0.67 83.08 0.34 42.16 0 0 Z " fill="#212122" transform="translate(512,736)"/>
<path d="M0 0 C0 0.33 0 0.66 0 1 C-9.05682775 2.06107266 -18.06401745 2.13067049 -27.16796875 2.09765625 C-28.69924371 2.09578675 -30.23051927 2.09436537 -31.76179504 2.09336853 C-35.75491035 2.08958518 -39.74798818 2.07979158 -43.74108887 2.06866455 C-47.83064263 2.05835955 -51.92020257 2.05385161 -56.00976562 2.04882812 C-64.00652745 2.03816475 -72.00325904 2.0211398 -80 2 C-79.67 1.34 -79.34 0.68 -79 0 C-52.6255426 -0.74596817 -26.36325574 -1.29510925 0 0 Z " fill="#070708" transform="translate(624,860)"/>
<path d="M0 0 C0.495 1.485 0.495 1.485 1 3 C-10.55 2.67 -22.1 2.34 -34 2 C-34 31.04 -34 60.08 -34 90 C-34.33 90 -34.66 90 -35 90 C-35 60.63 -35 31.26 -35 1 C-6 0 -6 0 0 0 Z " fill="#252626" transform="translate(548,239)"/>
<path d="M0 0 C0.33 0 0.66 0 1 0 C1.05865035 3.18742115 1.09381259 6.37470118 1.125 9.5625 C1.14175781 10.45775391 1.15851563 11.35300781 1.17578125 12.27539062 C1.21471872 17.59035461 0.87703786 22.00550415 -1 27 C-1.66 27.66 -2.32 28.32 -3 29 C-2.42878014 19.24416608 -1.39476293 9.66855081 0 0 Z " fill="#131314" transform="translate(294,574)"/>
<path d="M0 0 C2.71663793 2.71663793 2.30753121 4.30194653 2.4140625 8.1015625 C2.45273438 9.31328125 2.49140625 10.525 2.53125 11.7734375 C2.57765625 13.67996094 2.57765625 13.67996094 2.625 15.625 C2.66367188 16.90375 2.70234375 18.1825 2.7421875 19.5 C2.83671049 22.66652017 2.92226357 25.8330304 3 29 C0.21051344 24.81577016 -0.12654452 21.76565781 -0.09765625 16.796875 C-0.09443359 15.8171875 -0.09121094 14.8375 -0.08789062 13.828125 C-0.07951172 12.81234375 -0.07113281 11.7965625 -0.0625 10.75 C-0.05798828 9.71875 -0.05347656 8.6875 -0.04882812 7.625 C-0.03706088 5.08327427 -0.02062011 2.54166681 0 0 Z " fill="#0F0F0F" transform="translate(186,548)"/>
<path d="M0 0 C12.71460452 -0.11427673 25.32056251 -0.01726146 38 1 C38 1.33 38 1.66 38 2 C28.1 2.33 18.2 2.66 8 3 C8 2.67 8 2.34 8 2 C5.36 1.67 2.72 1.34 0 1 C0 0.67 0 0.34 0 0 Z " fill="#3C3C3B" transform="translate(321,224)"/>
<path d="M0 0 C-2.64738916 1.4606285 -3.89448334 2 -7 2 C-7 2.66 -7 3.32 -7 4 C-9.31 4.33 -11.62 4.66 -14 5 C-14 5.33 -14 5.66 -14 6 C-19.34629602 7.0024305 -23.62374766 6.84888195 -29 6 C-29 5.67 -29 5.34 -29 5 C-27.33324219 4.72736328 -27.33324219 4.72736328 -25.6328125 4.44921875 C-18.1854334 3.20003498 -10.93744012 1.95581095 -3.78515625 -0.546875 C-2 -1 -2 -1 0 0 Z " fill="#323131" transform="translate(648,690)"/>
<path d="M0 0 C0.66 0 1.32 0 2 0 C2.09733092 7.09434233 2.10087193 13.98194143 1 21 C0.67 21 0.34 21 0 21 C-1.02358943 14.3466687 -1.366142 7.73055151 -1 1 C-0.67 0.67 -0.34 0.34 0 0 Z " fill="#272626" transform="translate(503,616)"/>
<path d="M0 0 C0.495 1.485 0.495 1.485 1 3 C-10.55 2.67 -22.1 2.34 -34 2 C-34 1.67 -34 1.34 -34 1 C-29.45839728 0.83156021 -24.91670855 0.66555982 -20.375 0.5 C-19.08980469 0.45230469 -17.80460938 0.40460938 -16.48046875 0.35546875 C-14.61455078 0.28779297 -14.61455078 0.28779297 -12.7109375 0.21875 C-11.56931152 0.17685547 -10.42768555 0.13496094 -9.25146484 0.09179688 C-6.16548737 0.00467212 -3.08699651 -0.01635495 0 0 Z " fill="#3D3C3C" transform="translate(548,239)"/>
<path d="M0 0 C0.33 0 0.66 0 1 0 C1.25028042 2.7078532 1.47571011 5.41408936 1.6875 8.125 C1.76033203 8.88554688 1.83316406 9.64609375 1.90820312 10.4296875 C2.27843828 15.48230845 1.75948362 18.55928858 -1 23 C-1.92321855 19.96094614 -2.02162761 17.60005212 -1.66015625 14.453125 C-1.56669922 13.60878906 -1.47324219 12.76445313 -1.37695312 11.89453125 C-1.27318359 11.02183594 -1.16941406 10.14914062 -1.0625 9.25 C-0.96259766 8.36183594 -0.86269531 7.47367188 -0.75976562 6.55859375 C-0.51284599 4.37159129 -0.25938365 2.18555333 0 0 Z " fill="#292929" transform="translate(787,853)"/>
<path d="M0 0 C1.40444502 2.80889004 0.73665437 4.5800738 0.22265625 7.6640625 C0.03896484 8.78554688 -0.14472656 9.90703125 -0.33398438 11.0625 C-0.53314453 12.238125 -0.73230469 13.41375 -0.9375 14.625 C-1.13279297 15.80835938 -1.32808594 16.99171875 -1.52929688 18.2109375 C-2.01380584 21.14162586 -2.50428236 24.07119025 -3 27 C-3.33 27 -3.66 27 -4 27 C-3.91859225 23.62405195 -3.80579799 20.24984087 -3.6875 16.875 C-3.66494141 15.92367187 -3.64238281 14.97234375 -3.61914062 13.9921875 C-3.41336516 8.60461174 -2.94570717 4.69101893 0 0 Z " fill="#0D0D0D" transform="translate(159,502)"/>
<path d="M0 0 C-2.6993688 3.71163209 -6.7000414 4.29847125 -11 5 C-12.32 5 -13.64 5 -15 5 C-15 4.34 -15 3.68 -15 3 C-16.98 3 -18.96 3 -21 3 C-21 2.67 -21 2.34 -21 2 C-20.13117188 1.95101563 -19.26234375 1.90203125 -18.3671875 1.8515625 C-17.21476562 1.77679688 -16.06234375 1.70203125 -14.875 1.625 C-13.16957031 1.52058594 -13.16957031 1.52058594 -11.4296875 1.4140625 C-7.96982988 1.11248614 -7.96982988 1.11248614 -4.6953125 -0.1015625 C-2 -1 -2 -1 0 0 Z " fill="#232323" transform="translate(414,476)"/>
<path d="M0 0 C0.33 0.66 0.66 1.32 1 2 C8.26 2.33 15.52 2.66 23 3 C23 3.33 23 3.66 23 4 C20.1253509 4.19586184 17.25061717 4.38193799 14.375 4.5625 C13.16263672 4.64661133 13.16263672 4.64661133 11.92578125 4.73242188 C7.48840633 5.00299352 3.32886844 5.21874296 -1 4 C-1.66 3.01 -2.32 2.02 -3 1 C-2.01 0.67 -1.02 0.34 0 0 Z " fill="#2C2B2B" transform="translate(421,701)"/>
<path d="M0 0 C5.96652354 1.57013777 10.82909025 4.75029782 16 8 C15.01 8.66 14.02 9.32 13 10 C11.51719804 9.21516341 10.0388502 8.42190666 8.5625 7.625 C7.73878906 7.18414062 6.91507812 6.74328125 6.06640625 6.2890625 C4 5 4 5 3 3 C0.98330173 1.86649466 0.98330173 1.86649466 -1 1 C-0.67 0.67 -0.34 0.34 0 0 Z " fill="#20201F" transform="translate(424,196)"/>
<path d="M0 0 C0.33 0 0.66 0 1 0 C1.33972801 2.81185594 1.67190212 5.62428236 2 8.4375 C2.09539063 9.22060547 2.19078125 10.00371094 2.2890625 10.81054688 C2.91511131 16.24375619 3.08759571 21.53074263 3 27 C0.03090402 23.72698081 -0.34354794 21.61934238 -0.1875 17.25 C-0.16042969 16.26515625 -0.13335938 15.2803125 -0.10546875 14.265625 C-0.07066406 13.51796875 -0.03585937 12.7703125 0 12 C-0.33 12 -0.66 12 -1 12 C-0.67 8.04 -0.34 4.08 0 0 Z " fill="#343433" transform="translate(858,181)"/>
<path d="M0 0 C0.66 0.33 1.32 0.66 2 1 C-2.07102033 6.65419491 -6.36049305 11.85330371 -12 16 C-12.66 15.67 -13.32 15.34 -14 15 C-12.98679688 14.00419922 -12.98679688 14.00419922 -11.953125 12.98828125 C-11.06109375 12.10527344 -10.1690625 11.22226562 -9.25 10.3125 C-8.36828125 9.44238281 -7.4865625 8.57226562 -6.578125 7.67578125 C-4.21194702 5.21997532 -2.08107444 2.69858952 0 0 Z " fill="#222222" transform="translate(226,306)"/>
<path d="M0 0 C2.31 0.66 4.62 1.32 7 2 C7 2.66 7 3.32 7 4 C7.721875 4.28875 8.44375 4.5775 9.1875 4.875 C11.79166667 5.91666667 14.39583333 6.95833333 17 8 C15.3125 9.1875 15.3125 9.1875 13 10 C10.25 8.75 10.25 8.75 8 7 C8 6.34 8 5.68 8 5 C7.05125 4.9175 6.1025 4.835 5.125 4.75 C2 4 2 4 0.625 1.9375 C0.41875 1.298125 0.2125 0.65875 0 0 Z " fill="#232323" transform="translate(477,603)"/>
<path d="M0 0 C0.33 0 0.66 0 1 0 C1.19219715 9.69527822 0.59581324 19.32867432 0 29 C-0.33 29 -0.66 29 -1 29 C-1.2278425 25.48014853 -1.42872813 21.95924178 -1.625 18.4375 C-1.68945312 17.44685547 -1.75390625 16.45621094 -1.8203125 15.43554688 C-2.12046555 9.78891763 -1.95630634 5.3238413 0 0 Z " fill="#424242" transform="translate(776,454)"/>
<path d="M0 0 C0.99 0.33 1.98 0.66 3 1 C3.433125 2.2065625 3.433125 2.2065625 3.875 3.4375 C4.77944219 6.23928441 4.77944219 6.23928441 7.625 7.3125 C8.800625 7.6528125 8.800625 7.6528125 10 8 C9.67 8.66 9.34 9.32 9 10 C6.69 9.67 4.38 9.34 2 9 C1.34 6.03 0.68 3.06 0 0 Z " fill="#292828" transform="translate(155,573)"/>
<path d="M0 0 C0.33 0 0.66 0 1 0 C1.73030908 6.21324498 2.23180249 11.84098757 1 18 C0.67 18 0.34 18 0 18 C-1.52003714 12.10985609 -1.67407948 5.85927818 0 0 Z " fill="#272727" transform="translate(579,550)"/>
<path d="M0 0 C8.19256018 0.35010941 8.19256018 0.35010941 11.5625 3.0625 C12.036875 3.701875 12.51125 4.34125 13 5 C9.57056481 6.18771723 7.62215325 5.80226223 4.25 4.5625 C3.45078125 4.27503906 2.6515625 3.98757812 1.828125 3.69140625 C1.22484375 3.46324219 0.6215625 3.23507813 0 3 C0 2.01 0 1.02 0 0 Z " fill="#292828" transform="translate(615,239)"/>
<path d="M0 0 C0.33 0 0.66 0 1 0 C1.11459026 7.41017023 0.91160286 14.64206267 0 22 C-0.33 22 -0.66 22 -1 22 C-1.22201613 19.0837882 -1.42808498 16.16792256 -1.625 13.25 C-1.72167969 12.0125 -1.72167969 12.0125 -1.8203125 10.75 C-1.871875 9.95078125 -1.9234375 9.1515625 -1.9765625 8.328125 C-2.02893066 7.5949707 -2.08129883 6.86181641 -2.13525391 6.10644531 C-1.97767085 3.65224559 -1.22264839 2.11146787 0 0 Z " fill="#090909" transform="translate(752,468)"/>
<path d="M0 0 C0.33 0.99 0.66 1.98 1 3 C-5.6 2.34 -12.2 1.68 -19 1 C-19 0.67 -19 0.34 -19 0 C-12.43507888 -0.78441153 -6.53162622 -1.10914408 0 0 Z " fill="#343434" transform="translate(278,264)"/>
<path d="M0 0 C0.66 0.33 1.32 0.66 2 1 C1.67 1.66 1.34 2.32 1 3 C0.34 3 -0.32 3 -1 3 C-1.33 3.99 -1.66 4.98 -2 6 C-5.5625 7.1875 -5.5625 7.1875 -9 8 C-9.66 7.34 -10.32 6.68 -11 6 C-9.21385682 4.96953278 -7.42089982 3.95086764 -5.625 2.9375 C-4.62726562 2.36902344 -3.62953125 1.80054688 -2.6015625 1.21484375 C-1.74304688 0.81394531 -0.88453125 0.41304687 0 0 Z " fill="#232323" transform="translate(664,680)"/>
<path d="M0 0 C0.33 0 0.66 0 1 0 C1.66 5.61 2.32 11.22 3 17 C-0.59734407 13.40265593 -0.66861627 11.97075596 -1 7 C-0.7397104 4.65739357 -0.42579972 2.3182429 0 0 Z " fill="#272627" transform="translate(784,834)"/>
<path d="M0 0 C0.99 0 1.98 0 3 0 C3.99 3.63 4.98 7.26 6 11 C5.34 11.66 4.68 12.32 4 13 C3.32942113 11.2097939 2.6636531 9.41778511 2 7.625 C1.62875 6.62726562 1.2575 5.62953125 0.875 4.6015625 C0 2 0 2 0 0 Z " fill="#242424" transform="translate(717,697)"/>
<path d="M0 0 C-1.578125 1.55078125 -1.578125 1.55078125 -4 3 C-7.234375 2.85546875 -7.234375 2.85546875 -10.75 2.1875 C-11.92046875 1.97480469 -13.0909375 1.76210938 -14.296875 1.54296875 C-15.63492188 1.27419922 -15.63492188 1.27419922 -17 1 C-17 0.67 -17 0.34 -17 0 C-11.23073111 -1.40333568 -5.81856895 -0.67296616 0 0 Z " fill="#282828" transform="translate(635,420)"/>
<path d="M0 0 C0.66 0.33 1.32 0.66 2 1 C-3.94 6.445 -3.94 6.445 -10 12 C-10.66 11.67 -11.32 11.34 -12 11 C-8.91110468 7.02856316 -6.4791664 4.42117103 -2 2 C-1.34 1.34 -0.68 0.68 0 0 Z " fill="#0C0C0D" transform="translate(236,299)"/>
<path d="M0 0 C3 1 3 1 4.01953125 2.9609375 C4.28121094 3.75757813 4.54289063 4.55421875 4.8125 5.375 C5.08707031 6.16648437 5.36164062 6.95796875 5.64453125 7.7734375 C6 10 6 10 4 13 C3.32694982 11.39850114 2.66177773 9.79368971 2 8.1875 C1.62875 7.29417969 1.2575 6.40085937 0.875 5.48046875 C0 3 0 3 0 0 Z " fill="#252525" transform="translate(723,713)"/>
<path d="M0 0 C-1.76774419 0.53122363 -3.53934083 1.04964073 -5.3125 1.5625 C-6.29863281 1.85253906 -7.28476562 2.14257812 -8.30078125 2.44140625 C-11 3 -11 3 -14 2 C-13 0 -13 0 -11.07421875 -0.703125 C-10.28660156 -0.88359375 -9.49898437 -1.0640625 -8.6875 -1.25 C-7.90761719 -1.44078125 -7.12773438 -1.6315625 -6.32421875 -1.828125 C-3.59471753 -2.02997047 -2.30234022 -1.41196151 0 0 Z " fill="#292829" transform="translate(647,708)"/>
<path d="M0 0 C0.66 0.66 1.32 1.32 2 2 C1.7578125 4.3828125 1.7578125 4.3828125 1.125 7.125 C0.92132813 8.03507813 0.71765625 8.94515625 0.5078125 9.8828125 C0.34023438 10.58148437 0.17265625 11.28015625 0 12 C-0.99 11.67 -1.98 11.34 -3 11 C-2.01 7.37 -1.02 3.74 0 0 Z " fill="#222222" transform="translate(292,650)"/>
<path d="M0 0 C0.33 0 0.66 0 1 0 C1.13277344 0.77085937 1.26554688 1.54171875 1.40234375 2.3359375 C1.57894531 3.33882812 1.75554688 4.34171875 1.9375 5.375 C2.11152344 6.37273438 2.28554688 7.37046875 2.46484375 8.3984375 C2.87712062 10.96909656 2.87712062 10.96909656 4 13 C3.34 13.66 2.68 14.32 2 15 C2 14.34 2 13.68 2 13 C1.34 13 0.68 13 0 13 C-1.0161692 8.37078475 -0.83796731 4.65537393 0 0 Z " fill="#2F2F2F" transform="translate(724,644)"/>
<path d="M0 0 C0.33 0 0.66 0 1 0 C2.125 7.625 2.125 7.625 1 11 C0.65772583 12.33106622 0.32248257 13.66400079 0 15 C-0.66 15 -1.32 15 -2 15 C-1.85973717 12.68715544 -1.71264442 10.37472409 -1.5625 8.0625 C-1.48128906 6.77472656 -1.40007813 5.48695313 -1.31640625 4.16015625 C-1 1 -1 1 0 0 Z " fill="#303030" transform="translate(745,522)"/>
<path d="M0 0 C1.72357119 2.58535679 2.44735018 4.03811614 3.1875 6.9375 C3.36667969 7.60652344 3.54585937 8.27554688 3.73046875 8.96484375 C4.03268678 11.24680888 3.68756692 12.82026659 3 15 C3 14.34 3 13.68 3 13 C2.34 13 1.68 13 1 13 C0.77213542 10.98177083 0.54427083 8.96354167 0.31640625 6.9453125 C0.08707039 4.92595684 0.08707039 4.92595684 -1 3 C-0.67 2.01 -0.34 1.02 0 0 Z " fill="#262525" transform="translate(777,806)"/>
<path d="M0 0 C0.33 0 0.66 0 1 0 C1.19561869 2.0825867 1.38119313 4.16611856 1.5625 6.25 C1.66691406 7.41015625 1.77132813 8.5703125 1.87890625 9.765625 C1.98198087 12.51871477 1.86213473 14.419982 1 17 C0.34 17 -0.32 17 -1 17 C-0.67 11.39 -0.34 5.78 0 0 Z " fill="#2C2C2D" transform="translate(298,613)"/>
<path d="M0 0 C2.18975773 3.28463659 2.99806563 6.20696275 4 10 C3.34 10.66 2.68 11.32 2 12 C1.4654744 10.75579353 0.94791389 9.50429064 0.4375 8.25 C0.14746094 7.55390625 -0.14257812 6.8578125 -0.44140625 6.140625 C-1.07831803 3.69987216 -0.80248831 2.3596345 0 0 Z " fill="#202020" transform="translate(730,727)"/>
<path d="M0 0 C0.66 0.33 1.32 0.66 2 1 C1.3125 2.9375 1.3125 2.9375 0 5 C-2.5 5.875 -2.5 5.875 -5 6 C-5.66 5.34 -6.32 4.68 -7 4 C-1.7265625 0.77734375 -1.7265625 0.77734375 0 0 Z " fill="#202020" transform="translate(545,714)"/>
<path d="M0 0 C0.66 0.33 1.32 0.66 2 1 C-0.73611164 4.04012404 -2.98923553 5.97159885 -7 7 C-7.99 6.34 -8.98 5.68 -10 5 C-8.38007835 4.13624104 -6.75388139 3.28424146 -5.125 2.4375 C-4.22007812 1.96183594 -3.31515625 1.48617187 -2.3828125 0.99609375 C-1.20332031 0.50302734 -1.20332031 0.50302734 0 0 Z " fill="#232323" transform="translate(478,692)"/>
<path d="M0 0 C2.14148733 3.212231 2.44114645 5.2476976 3 9 C3.33 9.66 3.66 10.32 4 11 C3.34 11.66 2.68 12.32 2 13 C1.46605821 11.5882217 0.94834896 10.17029756 0.4375 8.75 C0.14746094 7.96109375 -0.14257812 7.1721875 -0.44140625 6.359375 C-1.04522837 3.80896548 -0.8473932 2.44677771 0 0 Z " fill="#202020" transform="translate(714,683)"/>
<path d="M0 0 C-3.28491373 2.18994248 -4.83095639 2.35277339 -8.6875 2.625 C-10.17830078 2.73714844 -10.17830078 2.73714844 -11.69921875 2.8515625 C-12.83810547 2.92503906 -12.83810547 2.92503906 -14 3 C-9.99047657 -1.41284827 -5.60766481 -1.48438186 0 0 Z " fill="#2D2D2C" transform="translate(638,478)"/>
<path d="M0 0 C4.92127034 -0.16682272 8.50343896 -0.24828052 13 2 C9.84453684 4.10364211 9.43912739 4.26411176 5.9375 3.8125 C5.24527344 3.73644531 4.55304687 3.66039062 3.83984375 3.58203125 C2 3 2 3 0 0 Z " fill="#2F2E2E" transform="translate(586,232)"/>
<path d="M0 0 C2.18975773 3.28463659 2.99806563 6.20696275 4 10 C3.34 10.66 2.68 11.32 2 12 C1.4654744 10.75579353 0.94791389 9.50429064 0.4375 8.25 C0.14746094 7.55390625 -0.14257812 6.8578125 -0.44140625 6.140625 C-1.07831803 3.69987216 -0.80248831 2.3596345 0 0 Z " fill="#222222" transform="translate(746,769)"/>
<path d="M0 0 C2.875 -0.125 2.875 -0.125 6 0 C6.66 0.66 7.32 1.32 8 2 C4.32612505 2.85298376 0.9552607 3.10789471 -2.8125 3.0625 C-4.27623047 3.04896484 -4.27623047 3.04896484 -5.76953125 3.03515625 C-6.87361328 3.01775391 -6.87361328 3.01775391 -8 3 C-8 2.67 -8 2.34 -8 2 C-5.36 1.67 -2.72 1.34 0 1 C0 0.67 0 0.34 0 0 Z " fill="#383837" transform="translate(262,728)"/>
<path d="M0 0 C1.4391134 0.28359887 2.87625518 0.57721399 4.3125 0.875 C5.11300781 1.03742187 5.91351562 1.19984375 6.73828125 1.3671875 C9 2 9 2 12 4 C7.99434629 5.60226148 4.91390601 4.47694566 1 3 C0.67 2.01 0.34 1.02 0 0 Z " fill="#282829" transform="translate(540,519)"/>
<path d="M0 0 C1.75070517 0.11470137 3.50057536 0.24219028 5.25 0.375 C6.22453125 0.44460937 7.1990625 0.51421875 8.203125 0.5859375 C10.89633189 0.98465249 12.66963279 1.63507063 15 3 C4.44191344 3.3690205 4.44191344 3.3690205 0 1 C0 0.67 0 0.34 0 0 Z " fill="#111011" transform="translate(572,243)"/>
<path d="M0 0 C2 3.75 2 3.75 2 6 C1.34 6 0.68 6 0 6 C0 9.3 0 12.6 0 16 C-0.33 16 -0.66 16 -1 16 C-1.02685095 13.52076199 -1.04676547 11.0418116 -1.0625 8.5625 C-1.07506836 7.50192383 -1.07506836 7.50192383 -1.08789062 6.41992188 C-1.09653588 4.61306441 -1.05220011 2.80612397 -1 1 C-0.67 0.67 -0.34 0.34 0 0 Z " fill="#3C3C3D" transform="translate(257,614)"/>
<path d="M0 0 C0.66 0.33 1.32 0.66 2 1 C-0.21928194 3.90802461 -1.92969143 5.95312762 -5 8 C-5.99 7.67 -6.98 7.34 -8 7 C-5.36 4.69 -2.72 2.38 0 0 Z " fill="#20201F" transform="translate(766,187)"/>
<path d="M0 0 C3.48331435 3.01887244 4.79157144 5.56909529 6 10 C5.01 10 4.02 10 3 10 C0 3.375 0 3.375 0 0 Z " fill="#242323" transform="translate(848,151)"/>
<path d="M0 0 C2.45823172 3.68734758 3.01242616 6.69699971 4 11 C3.01 10.67 2.02 10.34 1 10 C-1.28070175 3.84210526 -1.28070175 3.84210526 0 0 Z " fill="#252525" transform="translate(735,688)"/>
<path d="M0 0 C0 4.38968456 -2.12805101 5.76905739 -5 9 C-6.32 8.67 -7.64 8.34 -9 8 C-6.03 5.36 -3.06 2.72 0 0 Z " fill="#2A2A2A" transform="translate(495,679)"/>
<path d="M0 0 C0.66 0.66 1.32 1.32 2 2 C0.58376784 2.05447047 -0.83308191 2.09300508 -2.25 2.125 C-3.03890625 2.14820313 -3.8278125 2.17140625 -4.640625 2.1953125 C-7.20731941 1.9828378 -8.7916067 1.28654105 -11 0 C-7.02274741 -1.05280216 -3.99945368 -0.97764423 0 0 Z " fill="#272626" transform="translate(843,146)"/>
<path d="M0 0 C0.33 1.32 0.66 2.64 1 4 C-1.4375 6.75 -1.4375 6.75 -4 9 C-4.66 8.67 -5.32 8.34 -6 8 C-4.02 5.36 -2.04 2.72 0 0 Z " fill="#222121" transform="translate(270,698)"/>
<path d="M0 0 C0.99 0.33 1.98 0.66 3 1 C1.8141763 4.37503669 0.72426311 6.64722731 -2 9 C-1.41196203 5.97580475 -0.77321882 2.98241547 0 0 Z " fill="#212121" transform="translate(170,569)"/>
<path d="M0 0 C0.66 0.66 1.32 1.32 2 2 C1.9765625 4.6015625 1.9765625 4.6015625 1.625 7.625 C1.51414062 8.62789063 1.40328125 9.63078125 1.2890625 10.6640625 C1.19367187 11.43492187 1.09828125 12.20578125 1 13 C0.67 13 0.34 13 0 13 C-0.83796731 8.34462607 -1.0161692 4.62921525 0 0 Z " fill="#252424" transform="translate(856,324)"/>
<path d="M0 0 C0.66 1.32 1.32 2.64 2 4 C0.75 5.5625 0.75 5.5625 -1 7 C-3.1875 6.6875 -3.1875 6.6875 -5 6 C-3.35 4.02 -1.7 2.04 0 0 Z " fill="#202121" transform="translate(501,672)"/>
<path d="M0 0 C0.99 0 1.98 0 3 0 C2.67 2.64 2.34 5.28 2 8 C1.01 7.67 0.02 7.34 -1 7 C-0.34 7 0.32 7 1 7 C0.649375 6.401875 0.29875 5.80375 -0.0625 5.1875 C-1 3 -1 3 0 0 Z " fill="#393939" transform="translate(707,664)"/>
<path d="M0 0 C1.77706209 2.66559313 2.87548273 5.0280615 4 8 C3.34 8.66 2.68 9.32 2 10 C-1.07692308 4.58461538 -1.07692308 4.58461538 -0.6875 1.625 C-0.460625 1.08875 -0.23375 0.5525 0 0 Z " fill="#232222" transform="translate(597,456)"/>
<path d="M0 0 C0.33 0.99 0.66 1.98 1 3 C-0.62339805 4.70884005 -2.29319053 6.37446717 -4 8 C-4.66 8 -5.32 8 -6 8 C-4.55746343 4.63408134 -2.66735273 2.48952921 0 0 Z " fill="#141414" transform="translate(813,420)"/>
<path d="M0 0 C0.33 0.66 0.66 1.32 1 2 C1.66 2 2.32 2 3 2 C4.03039555 6.53374042 4.17766075 7.64467851 2 12 C1.34 8.04 0.68 4.08 0 0 Z " fill="#292828" transform="translate(742,392)"/>
<path d="M0 0 C2.86724686 0.57344937 3.8614515 0.8614515 6 3 C5.67 3.99 5.34 4.98 5 6 C3.35 5.67 1.7 5.34 0 5 C0.33 4.01 0.66 3.02 1 2 C0.67 1.34 0.34 0.68 0 0 Z " fill="#313030" transform="translate(688,298)"/>
<path d="M0 0 C1.1725131 0.95117134 2.33787015 1.91117009 3.5 2.875 C4.47453125 3.67550781 4.47453125 3.67550781 5.46875 4.4921875 C5.9740625 4.98976562 6.479375 5.48734375 7 6 C7 6.66 7 7.32 7 8 C4.13792848 6.71700242 1.9754912 5.469364 0 3 C0 2.01 0 1.02 0 0 Z " fill="#141414" transform="translate(358,216)"/>
<path d="M0 0 C4.95 0.99 4.95 0.99 10 2 C7 4 7 4 3.8125 3.625 C2.884375 3.41875 1.95625 3.2125 1 3 C0.67 2.01 0.34 1.02 0 0 Z " fill="#292929" transform="translate(382,179)"/>
<path d="M0 0 C6.27 0 12.54 0 19 0 C19 0.33 19 0.66 19 1 C12.73 1 6.46 1 0 1 C0 0.67 0 0.34 0 0 Z " fill="#444342" transform="translate(556,879)"/>
<path d="M0 0 C1.61949011 2.57213134 2.04408751 3.67669159 1.625 6.75 C1.41875 7.4925 1.2125 8.235 1 9 C0.01 9.33 -0.98 9.66 -2 10 C-1.54177532 6.53058454 -1.10868317 3.32604951 0 0 Z " fill="#222222" transform="translate(254,791)"/>
<path d="M0 0 C0.66 0.99 1.32 1.98 2 3 C1.3125 6.125 1.3125 6.125 0 9 C-0.99 9.33 -1.98 9.66 -3 10 C-2.01 6.7 -1.02 3.4 0 0 Z " fill="#252526" transform="translate(263,765)"/>
<path d="M0 0 C1.134375 0.020625 2.26875 0.04125 3.4375 0.0625 C-1.3125 4.0625 -1.3125 4.0625 -3.5625 4.0625 C-3.8925 3.0725 -4.2225 2.0825 -4.5625 1.0625 C-3.5625 0.0625 -3.5625 0.0625 0 0 Z " fill="#242425" transform="translate(548.5625,727.9375)"/>
<path d="M0 0 C0.66 0.99 1.32 1.98 2 3 C-0.625 7.875 -0.625 7.875 -4 9 C-2.80100302 5.9168649 -1.52299523 2.93720508 0 0 Z " fill="#222223" transform="translate(508,661)"/>
<path d="M0 0 C2.0625 0.4375 2.0625 0.4375 4 1 C0.25 4 0.25 4 -2 4 C-2.33 4.66 -2.66 5.32 -3 6 C-3.99 5.34 -4.98 4.68 -6 4 C-5.195625 3.525625 -4.39125 3.05125 -3.5625 2.5625 C-1.15246512 1.23099846 -1.15246512 1.23099846 0 0 Z " fill="#2F2F2F" transform="translate(162,437)"/>
<path d="M0 0 C0 3.64478912 -0.85802506 5.09303401 -3 8 C-5.109375 8.6484375 -5.109375 8.6484375 -7 9 C-6.02180976 7.68677212 -5.0424189 6.37443848 -4.0625 5.0625 C-3.51722656 4.33160156 -2.97195313 3.60070312 -2.41015625 2.84765625 C-1 1 -1 1 0 0 Z " fill="#222222" transform="translate(690,261)"/>
<path d="M0 0 C0.33 0.99 0.66 1.98 1 3 C-1.3125 5.5 -1.3125 5.5 -4 8 C-4.99 8 -5.98 8 -7 8 C-4.69 5.36 -2.38 2.72 0 0 Z " fill="#262525" transform="translate(700,249)"/>
<path d="M0 0 C2 3 2 3 1.7578125 5.04296875 C1.171875 7.02864583 0.5859375 9.01432292 0 11 C-0.33 11 -0.66 11 -1 11 C-1.125 3.375 -1.125 3.375 0 0 Z " fill="#323131" transform="translate(240,857)"/>
<path d="M0 0 C2.18975773 3.28463659 2.99806563 6.20696275 4 10 C3.34 9.67 2.68 9.34 2 9 C2 8.01 2 7.02 2 6 C1.34 6 0.68 6 0 6 C-0.38218767 4.34385343 -0.71395102 2.67542976 -1 1 C-0.67 0.67 -0.34 0.34 0 0 Z " fill="#2B2B2A" transform="translate(743,710)"/>
<path d="M0 0 C3.66881155 0.70554068 6.70450534 2.27735506 10 4 C5.82412255 5.39195915 3.86525224 3.82323219 0 2 C0 1.34 0 0.68 0 0 Z " fill="#141414" transform="translate(550,696)"/>
<path d="M0 0 C0 0.33 0 0.66 0 1 C-3.25 2.1875 -3.25 2.1875 -7 3 C-9.4375 1.625 -9.4375 1.625 -11 0 C-6.94952424 -1.35015859 -4.2079832 -0.62084998 0 0 Z " fill="#272828" transform="translate(425,698)"/>
<path d="M0 0 C0.99 0.66 1.98 1.32 3 2 C1.35 3.32 -0.3 4.64 -2 6 C-2.66 5.67 -3.32 5.34 -4 5 C-4 4.34 -4 3.68 -4 3 C-3.34 3 -2.68 3 -2 3 C-2 2.34 -2 1.68 -2 1 C-1.34 0.67 -0.68 0.34 0 0 Z " fill="#252525" transform="translate(179,423)"/>
<path d="M0 0 C3.68754757 0.49831724 5.60490662 1.10067643 8 4 C7.01 4.495 7.01 4.495 6 5 C3.96855359 4.06553465 1.96466413 3.06775224 0 2 C0 1.34 0 0.68 0 0 Z " fill="#252425" transform="translate(627,258)"/>
<path d="M0 0 C4.75 0.75 4.75 0.75 7 3 C6.67 3.99 6.34 4.98 6 6 C5.01 5.34 4.02 4.68 3 4 C3 3.34 3 2.68 3 2 C2.01 1.67 1.02 1.34 0 1 C0 0.67 0 0.34 0 0 Z " fill="#232323" transform="translate(331,193)"/>
<path d="M0 0 C4.75 0.75 4.75 0.75 7 3 C6.67 3.99 6.34 4.98 6 6 C3.30274481 4.11192137 1.86783571 2.80175356 0 0 Z " fill="#262626" transform="translate(324,187)"/>
<path d="M0 0 C2 1 2 1 3 3 C-1.43076923 5.09230769 -1.43076923 5.09230769 -4.3125 4.625 C-4.869375 4.41875 -5.42625 4.2125 -6 4 C-4.02 2.68 -2.04 1.36 0 0 Z " fill="#232323" transform="translate(809,157)"/>
<path d="M0 0 C2.79872437 2.52788007 4.45773019 4.20411134 5 8 C3.0625 7.375 3.0625 7.375 1 6 C0.25 2.875 0.25 2.875 0 0 Z " fill="#2D2D2D" transform="translate(240,868)"/>
<path d="M0 0 C2.29633824 3.44450737 2.54016485 5.93812283 3 10 C0 8 0 8 -0.75 5.5625 C-1 3 -1 3 0 0 Z " fill="#282828" transform="translate(771,786)"/>
<path d="M0 0 C4.875 4.75 4.875 4.75 6 7 C3.13275314 6.42655063 2.1385485 6.1385485 0 4 C0 2.68 0 1.36 0 0 Z " fill="#232323" transform="translate(534,660)"/>
<path d="M0 0 C0.33 0 0.66 0 1 0 C1.2493357 1.60115576 1.47378648 3.20620159 1.6875 4.8125 C1.87892578 6.15248047 1.87892578 6.15248047 2.07421875 7.51953125 C2 10 2 10 -1 13 C-0.67 8.71 -0.34 4.42 0 0 Z " fill="#383738" transform="translate(513,640)"/>
<path d="M0 0 C1.10844919 3.32534757 0.84454356 5.62182575 0 9 C-0.66 8.67 -1.32 8.34 -2 8 C-2 6.02 -2 4.04 -2 2 C-1.34 2 -0.68 2 0 2 C0 1.34 0 0.68 0 0 Z " fill="#212121" transform="translate(292,601)"/>
<path d="M0 0 C3 1 3 1 4.25 2.875 C5 5 5 5 4 8 C4 7.34 4 6.68 4 6 C3.34 6 2.68 6 2 6 C1.34 4.02 0.68 2.04 0 0 Z " fill="#272727" transform="translate(574,541)"/>
<path d="M0 0 C0.33 0 0.66 0 1 0 C1.33 3.3 1.66 6.6 2 10 C1.01 10 0.02 10 -1 10 C-0.67 6.7 -0.34 3.4 0 0 Z " fill="#302F2F" transform="translate(747,510)"/>
<path d="M0 0 C0.66 0 1.32 0 2 0 C2.1875 2.875 2.1875 2.875 2 6 C1.01 6.66 0.02 7.32 -1 8 C-0.67 5.36 -0.34 2.72 0 0 Z " fill="#222222" transform="translate(160,488)"/>
<path d="M0 0 C0.66 0.33 1.32 0.66 2 1 C2 1.66 2 2.32 2 3 C0.1875 4.6875 0.1875 4.6875 -2 6 C-2.99 5.67 -3.98 5.34 -5 5 C-3.35 3.35 -1.7 1.7 0 0 Z " fill="#252525" transform="translate(607,425)"/>
<path d="M0 0 C0 0.66 0 1.32 0 2 C-3.3 1.67 -6.6 1.34 -10 1 C-10 0.67 -10 0.34 -10 0 C-6.30458414 -0.95024979 -3.69541586 -0.95024979 0 0 Z " fill="#292929" transform="translate(592,246)"/>
<path d="M0 0 C2.02350324 3.03525486 2.32124018 4.19426202 2.625 7.6875 C2.69976563 8.49574219 2.77453125 9.30398437 2.8515625 10.13671875 C2.90054688 10.75160156 2.94953125 11.36648437 3 12 C2.01 11.67 1.02 11.34 0 11 C0 7.37 0 3.74 0 0 Z " fill="#313131" transform="translate(855,166)"/>
<path d="M0 0 C4.95 0 9.9 0 15 0 C15 0.33 15 0.66 15 1 C10.05 1 5.1 1 0 1 C0 0.67 0 0.34 0 0 Z " fill="#464545" transform="translate(700,879)"/>
<path d="M0 0 C4.95 0 9.9 0 15 0 C15 0.33 15 0.66 15 1 C10.05 1 5.1 1 0 1 C0 0.67 0 0.34 0 0 Z " fill="#424040" transform="translate(536,879)"/>
<path d="M0 0 C3.63 0 7.26 0 11 0 C11 0.33 11 0.66 11 1 C7.37 1 3.74 1 0 1 C0 0.67 0 0.34 0 0 Z " fill="#464545" transform="translate(616,879)"/>
<path d="M0 0 C3.63 0 7.26 0 11 0 C11 0.33 11 0.66 11 1 C7.37 1 3.74 1 0 1 C0 0.67 0 0.34 0 0 Z " fill="#424040" transform="translate(464,879)"/>
<path d="M0 0 C3.63 0 7.26 0 11 0 C11 0.33 11 0.66 11 1 C7.37 1 3.74 1 0 1 C0 0.67 0 0.34 0 0 Z " fill="#424041" transform="translate(416,879)"/>
<path d="M0 0 C3.63 0 7.26 0 11 0 C11 0.33 11 0.66 11 1 C7.37 1 3.74 1 0 1 C0 0.67 0 0.34 0 0 Z " fill="#414040" transform="translate(384,879)"/>
<path d="M0 0 C3.63 0 7.26 0 11 0 C11 0.33 11 0.66 11 1 C7.37 1 3.74 1 0 1 C0 0.67 0 0.34 0 0 Z " fill="#424141" transform="translate(352,879)"/>
<path d="M0 0 C3.3 0 6.6 0 10 0 C10 0.33 10 0.66 10 1 C6.7 1 3.4 1 0 1 C0 0.67 0 0.34 0 0 Z " fill="#484646" transform="translate(680,879)"/>
<path d="M0 0 C3.3 0 6.6 0 10 0 C10 0.33 10 0.66 10 1 C6.7 1 3.4 1 0 1 C0 0.67 0 0.34 0 0 Z " fill="#464544" transform="translate(632,879)"/>
<path d="M0 0 C2.97 0 5.94 0 9 0 C9 0.33 9 0.66 9 1 C6.03 1 3.06 1 0 1 C0 0.67 0 0.34 0 0 Z " fill="#414040" transform="translate(269,879)"/>
<path d="M0 0 C0.33 0 0.66 0 1 0 C1 2.64 1 5.28 1 8 C0.67 8 0.34 8 0 8 C0 5.36 0 2.72 0 0 Z " fill="#454345" transform="translate(863,294)"/>
<path d="M0 0 C2.31 0 4.62 0 7 0 C7 0.33 7 0.66 7 1 C4.69 1 2.38 1 0 1 C0 0.67 0 0.34 0 0 Z " fill="#474545" transform="translate(720,879)"/>
<path d="M0 0 C2.31 0 4.62 0 7 0 C7 0.33 7 0.66 7 1 C4.69 1 2.38 1 0 1 C0 0.67 0 0.34 0 0 Z " fill="#444344" transform="translate(584,879)"/>
<path d="M0 0 C2.31 0 4.62 0 7 0 C7 0.33 7 0.66 7 1 C4.69 1 2.38 1 0 1 C0 0.67 0 0.34 0 0 Z " fill="#424040" transform="translate(396,879)"/>
<path d="M0 0 C2.31 0 4.62 0 7 0 C7 0.33 7 0.66 7 1 C4.69 1 2.38 1 0 1 C0 0.67 0 0.34 0 0 Z " fill="#414040" transform="translate(340,879)"/>
<path d="M0 0 C1.65 0 3.3 0 5 0 C4.34 0.66 3.68 1.32 3 2 C2.01 2 1.02 2 0 2 C0 1.34 0 0.68 0 0 Z " fill="#484746" transform="translate(572,710)"/>
<path d="M0 0 C1.98 0 3.96 0 6 0 C6 0.33 6 0.66 6 1 C4.02 1 2.04 1 0 1 C0 0.67 0 0.34 0 0 Z " fill="#464445" transform="translate(692,879)"/>
<path d="M0 0 C1.98 0 3.96 0 6 0 C6 0.33 6 0.66 6 1 C4.02 1 2.04 1 0 1 C0 0.67 0 0.34 0 0 Z " fill="#444344" transform="translate(604,879)"/>
<path d="M0 0 C1.98 0 3.96 0 6 0 C6 0.33 6 0.66 6 1 C4.02 1 2.04 1 0 1 C0 0.67 0 0.34 0 0 Z " fill="#413F40" transform="translate(520,879)"/>
<path d="M0 0 C1.98 0 3.96 0 6 0 C6 0.33 6 0.66 6 1 C4.02 1 2.04 1 0 1 C0 0.67 0 0.34 0 0 Z " fill="#434141" transform="translate(440,879)"/>
<path d="M0 0 C1.98 0 3.96 0 6 0 C6 0.33 6 0.66 6 1 C4.02 1 2.04 1 0 1 C0 0.67 0 0.34 0 0 Z " fill="#403F3F" transform="translate(312,879)"/>
<path d="M0 0 C1.98 0 3.96 0 6 0 C6 0.33 6 0.66 6 1 C4.02 1 2.04 1 0 1 C0 0.67 0 0.34 0 0 Z " fill="#424140" transform="translate(304,879)"/>
<path d="M0 0 C1.98 0 3.96 0 6 0 C6 0.33 6 0.66 6 1 C4.02 1 2.04 1 0 1 C0 0.67 0 0.34 0 0 Z " fill="#434141" transform="translate(296,879)"/>
<path d="M0 0 C0.33 0 0.66 0 1 0 C1 1.98 1 3.96 1 6 C0.67 6 0.34 6 0 6 C0 4.02 0 2.04 0 0 Z " fill="#454444" transform="translate(593,448)"/>
<path d="M0 0 C1.65 0 3.3 0 5 0 C5 0.33 5 0.66 5 1 C3.35 1 1.7 1 0 1 C0 0.67 0 0.34 0 0 Z " fill="#424040" transform="translate(500,879)"/>
<path d="M0 0 C0.99 0.33 1.98 0.66 3 1 C2.34 1.66 1.68 2.32 1 3 C0.67 2.01 0.34 1.02 0 0 Z " fill="#41403F" transform="translate(515,741)"/>
<path d="M0 0 C0.33 0 0.66 0 1 0 C1 1.65 1 3.3 1 5 C0.67 5 0.34 5 0 5 C0 3.35 0 1.7 0 0 Z " fill="#3F3E3E" transform="translate(511,561)"/>
<path d="M0 0 C1.65 0 3.3 0 5 0 C5 0.33 5 0.66 5 1 C3.35 1 1.7 1 0 1 C0 0.67 0 0.34 0 0 Z " fill="#454244" transform="translate(508,224)"/>
<path d="M0 0 C1 4 1 4 1 4 Z " fill="#404241" transform="translate(258,624)"/>
<path d="M0 0 C1 4 1 4 1 4 Z " fill="#444342" transform="translate(511,618)"/>
<path d="M0 0 C1 4 1 4 1 4 Z " fill="#474646" transform="translate(736,553)"/>
<path d="M0 0 C1 4 1 4 1 4 Z " fill="#474646" transform="translate(746,420)"/>
<path d="M0 0 C0.66 0 1.32 0 2 0 C2 0.66 2 1.32 2 2 C1.34 2 0.68 2 0 2 C0 1.34 0 0.68 0 0 Z " fill="#454444" transform="translate(728,360)"/>
<path d="M0 0 C0.33 0.66 0.66 1.32 1 2 C0.01 1.67 -0.98 1.34 -2 1 C-1.34 0.67 -0.68 0.34 0 0 Z " fill="#464545" transform="translate(666,282)"/>
<path d="M0 0 C0.99 0.33 1.98 0.66 3 1 C2.01 1 1.02 1 0 1 C0 0.67 0 0.34 0 0 Z " fill="#4A4848" transform="translate(626,261)"/>
<path d="M0 0 C4 1 4 1 4 1 Z " fill="#464545" transform="translate(302,224)"/>
<path d="M0 0 C3 1 3 1 3 1 Z " fill="#464546" transform="translate(728,879)"/>
<path d="M0 0 C3 1 3 1 3 1 Z " fill="#464644" transform="translate(672,879)"/>
<path d="M0 0 C3 1 3 1 3 1 Z " fill="#464645" transform="translate(656,879)"/>
<path d="M0 0 C3 1 3 1 3 1 Z " fill="#474545" transform="translate(648,879)"/>
<path d="M0 0 C3 1 3 1 3 1 Z " fill="#464445" transform="translate(644,879)"/>
<path d="M0 0 C3 1 3 1 3 1 Z " fill="#454343" transform="translate(611,879)"/>
<path d="M0 0 C3 1 3 1 3 1 Z " fill="#444342" transform="translate(592,879)"/>
<path d="M0 0 C3 1 3 1 3 1 Z " fill="#444444" transform="translate(580,879)"/>
<path d="M0 0 C3 1 3 1 3 1 Z " fill="#464544" transform="translate(576,879)"/>
<path d="M0 0 C3 1 3 1 3 1 Z " fill="#434242" transform="translate(552,879)"/>
<path d="M0 0 C3 1 3 1 3 1 Z " fill="#414040" transform="translate(496,879)"/>
<path d="M0 0 C3 1 3 1 3 1 Z " fill="#404041" transform="translate(492,879)"/>
<path d="M0 0 C3 1 3 1 3 1 Z " fill="#414140" transform="translate(488,879)"/>
<path d="M0 0 C3 1 3 1 3 1 Z " fill="#424141" transform="translate(484,879)"/>
<path d="M0 0 C3 1 3 1 3 1 Z " fill="#414040" transform="translate(476,879)"/>
<path d="M0 0 C3 1 3 1 3 1 Z " fill="#434141" transform="translate(412,879)"/>
<path d="M0 0 C3 1 3 1 3 1 Z " fill="#424141" transform="translate(408,879)"/>
<path d="M0 0 C3 1 3 1 3 1 Z " fill="#424140" transform="translate(376,879)"/>
<path d="M0 0 C3 1 3 1 3 1 Z " fill="#424041" transform="translate(372,879)"/>
<path d="M0 0 C3 1 3 1 3 1 Z " fill="#414141" transform="translate(368,879)"/>
<path d="M0 0 C3 1 3 1 3 1 Z " fill="#424142" transform="translate(364,879)"/>
<path d="M0 0 C3 1 3 1 3 1 Z " fill="#413F40" transform="translate(336,879)"/>
<path d="M0 0 C3 1 3 1 3 1 Z " fill="#423F40" transform="translate(320,879)"/>
<path d="M0 0 C0.66 0.66 1.32 1.32 2 2 C1.34 2 0.68 2 0 2 C0 1.34 0 0.68 0 0 Z " fill="#434343" transform="translate(240,825)"/>
<path d="M0 0 C0.66 0.66 1.32 1.32 2 2 C1.34 2 0.68 2 0 2 C0 1.34 0 0.68 0 0 Z " fill="#464544" transform="translate(752,798)"/>
<path d="" fill="#464545" transform="translate(0,0)"/>
<path d="" fill="#474646" transform="translate(0,0)"/>
<path d="M0 0 C0.66 0 1.32 0 2 0 C1.67 0.66 1.34 1.32 1 2 C0.67 1.34 0.34 0.68 0 0 Z " fill="#494847" transform="translate(731,742)"/>
<path d="M0 0 C3 1 3 1 3 1 Z " fill="#4E4C4C" transform="translate(632,691)"/>
<path d="M0 0 C0.66 0 1.32 0 2 0 C1.67 0.66 1.34 1.32 1 2 C0.67 1.34 0.34 0.68 0 0 Z " fill="#454646" transform="translate(272,690)"/>
<path d="M0 0 C0.33 0.66 0.66 1.32 1 2 C0.34 1.67 -0.32 1.34 -1 1 C-0.67 0.67 -0.34 0.34 0 0 Z " fill="#4C4D4D" transform="translate(641,688)"/>
<path d="" fill="#42403F" transform="translate(0,0)"/>
<path d="" fill="#484747" transform="translate(0,0)"/>
<path d="" fill="#3D3D3C" transform="translate(0,0)"/>
<path d="M0 0 C0.66 0 1.32 0 2 0 C1.67 0.66 1.34 1.32 1 2 C0.67 1.34 0.34 0.68 0 0 Z " fill="#424143" transform="translate(186,585)"/>
<path d="" fill="#454445" transform="translate(0,0)"/>
<path d="M0 0 C3 1 3 1 3 1 Z " fill="#3F3D3D" transform="translate(516,514)"/>
<path d="" fill="#484747" transform="translate(0,0)"/>
<path d="M0 0 C0.66 0.66 1.32 1.32 2 2 C1.34 2 0.68 2 0 2 C0 1.34 0 0.68 0 0 Z " fill="#434243" transform="translate(601,470)"/>
<path d="" fill="#3B3A39" transform="translate(0,0)"/>
<path d="M0 0 C3 1 3 1 3 1 Z " fill="#403F3F" transform="translate(390,423)"/>
<path d="" fill="#444342" transform="translate(0,0)"/>
<path d="" fill="#474646" transform="translate(0,0)"/>
<path d="M0 0 C0.66 0.66 1.32 1.32 2 2 C1.34 2 0.68 2 0 2 C0 1.34 0 0.68 0 0 Z " fill="#444342" transform="translate(712,334)"/>
<path d="M0 0 C0.99 0.495 0.99 0.495 2 1 C1.01 1.495 1.01 1.495 0 2 C0 1.34 0 0.68 0 0 Z " fill="#43413F" transform="translate(274,267)"/>
<path d="M0 0 C3 1 3 1 3 1 Z " fill="#444343" transform="translate(504,224)"/>
<path d="M0 0 C3 1 3 1 3 1 Z " fill="#494949" transform="translate(289,224)"/>
<path d="" fill="#484645" transform="translate(0,0)"/>
<path d="M0 0 C2 1 2 1 2 1 Z " fill="#444442" transform="translate(757,879)"/>
<path d="M0 0 C2 1 2 1 2 1 Z " fill="#444240" transform="translate(752,879)"/>
<path d="M0 0 C2 1 2 1 2 1 Z " fill="#444344" transform="translate(748,879)"/>
<path d="M0 0 C2 1 2 1 2 1 Z " fill="#474646" transform="translate(732,879)"/>
<path d="M0 0 C2 1 2 1 2 1 Z " fill="#474545" transform="translate(716,879)"/>
<path d="M0 0 C2 1 2 1 2 1 Z " fill="#474546" transform="translate(676,879)"/>
<path d="M0 0 C2 1 2 1 2 1 Z " fill="#444343" transform="translate(669,879)"/>
<path d="M0 0 C2 1 2 1 2 1 Z " fill="#444443" transform="translate(664,879)"/>
<path d="M0 0 C2 1 2 1 2 1 Z " fill="#464647" transform="translate(628,879)"/>
<path d="M0 0 C2 1 2 1 2 1 Z " fill="#464545" transform="translate(600,879)"/>
<path d="M0 0 C2 1 2 1 2 1 Z " fill="#454343" transform="translate(596,879)"/>
<path d="M0 0 C2 1 2 1 2 1 Z " fill="#414140" transform="translate(528,879)"/>
<path d="M0 0 C2 1 2 1 2 1 Z " fill="#403F40" transform="translate(512,879)"/>
<path d="M0 0 C2 1 2 1 2 1 Z " fill="#424040" transform="translate(480,879)"/>
<path d="M0 0 C2 1 2 1 2 1 Z " fill="#423F41" transform="translate(436,879)"/>
<path d="M0 0 C2 1 2 1 2 1 Z " fill="#413F41" transform="translate(432,879)"/>
<path d="M0 0 C2 1 2 1 2 1 Z " fill="#434141" transform="translate(428,879)"/>
<path d="M0 0 C2 1 2 1 2 1 Z " fill="#434041" transform="translate(404,879)"/>
<path d="M0 0 C2 1 2 1 2 1 Z " fill="#424141" transform="translate(380,879)"/>
<path d="M0 0 C2 1 2 1 2 1 Z " fill="#423F40" transform="translate(348,879)"/>
<path d="M0 0 C2 1 2 1 2 1 Z " fill="#434141" transform="translate(332,879)"/>
<path d="M0 0 C2 1 2 1 2 1 Z " fill="#424140" transform="translate(328,879)"/>
<path d="M0 0 C2 1 2 1 2 1 Z " fill="#414040" transform="translate(324,879)"/>
<path d="M0 0 C2 1 2 1 2 1 Z " fill="#414040" transform="translate(292,879)"/>
<path d="M0 0 C2 1 2 1 2 1 Z " fill="#413F40" transform="translate(288,879)"/>
<path d="M0 0 C2 1 2 1 2 1 Z " fill="#424040" transform="translate(280,879)"/>
<path d="M0 0 C2 1 2 1 2 1 Z " fill="#40403F" transform="translate(256,879)"/>
<path d="" fill="#444446" transform="translate(0,0)"/>
<path d="" fill="#484544" transform="translate(0,0)"/>
<path d="" fill="#464546" transform="translate(0,0)"/>
<path d="" fill="#444244" transform="translate(0,0)"/>
<path d="" fill="#474645" transform="translate(0,0)"/>
<path d="" fill="#474644" transform="translate(0,0)"/>
<path d="" fill="#474648" transform="translate(0,0)"/>
<path d="" fill="#494848" transform="translate(0,0)"/>
<path d="M0 0 C2 1 2 1 2 1 Z " fill="#464545" transform="translate(758,745)"/>
<path d="" fill="#484746" transform="translate(0,0)"/>
<path d="" fill="#484644" transform="translate(0,0)"/>
<path d="M0 0 C2 1 2 1 2 1 Z " fill="#484847" transform="translate(541,735)"/>
<path d="" fill="#424441" transform="translate(0,0)"/>
<path d="M0 0 C2 1 2 1 2 1 Z " fill="#424140" transform="translate(528,720)"/>
<path d="M0 0 C2 1 2 1 2 1 Z " fill="#4C4A4C" transform="translate(249,720)"/>
<path d="" fill="#444344" transform="translate(0,0)"/>
<path d="" fill="#444442" transform="translate(0,0)"/>
<path d="" fill="#41403F" transform="translate(0,0)"/>
<path d="" fill="#494746" transform="translate(0,0)"/>
<path d="M0 0 C2 1 2 1 2 1 Z " fill="#474847" transform="translate(582,690)"/>
<path d="M0 0 C2 1 2 1 2 1 Z " fill="#3C3C3D" transform="translate(481,688)"/>
<path d="M0 0 C2 1 2 1 2 1 Z " fill="#3D3C3C" transform="translate(462,687)"/>
<path d="M0 0 C2 1 2 1 2 1 Z " fill="#444143" transform="translate(703,671)"/>
<path d="" fill="#424242" transform="translate(0,0)"/>
<path d="" fill="#424142" transform="translate(0,0)"/>
<path d="" fill="#474645" transform="translate(0,0)"/>
<path d="" fill="#424343" transform="translate(0,0)"/>
<path d="" fill="#444444" transform="translate(0,0)"/>
<path d="" fill="#444343" transform="translate(0,0)"/>
<path d="" fill="#3D3B3D" transform="translate(0,0)"/>
<path d="" fill="#3D3C3D" transform="translate(0,0)"/>
<path d="M0 0 C2 1 2 1 2 1 Z " fill="#404141" transform="translate(538,613)"/>
<path d="" fill="#434142" transform="translate(0,0)"/>
<path d="" fill="#3B3B3A" transform="translate(0,0)"/>
<path d="" fill="#474544" transform="translate(0,0)"/>
<path d="" fill="#424041" transform="translate(0,0)"/>
<path d="" fill="#444244" transform="translate(0,0)"/>
<path d="" fill="#484645" transform="translate(0,0)"/>
<path d="" fill="#3F3F3E" transform="translate(0,0)"/>
<path d="" fill="#3F3F3E" transform="translate(0,0)"/>
<path d="" fill="#3F3F3E" transform="translate(0,0)"/>
<path d="M0 0 C2 1 2 1 2 1 Z " fill="#434344" transform="translate(574,536)"/>
<path d="" fill="#3D3D3D" transform="translate(0,0)"/>
<path d="M0 0 C2 1 2 1 2 1 Z " fill="#444345" transform="translate(566,528)"/>
<path d="M0 0 C2 1 2 1 2 1 Z " fill="#404243" transform="translate(550,520)"/>
<path d="" fill="#474747" transform="translate(0,0)"/>
<path d="M0 0 C2 1 2 1 2 1 Z " fill="#3D3B3B" transform="translate(400,476)"/>
<path d="" fill="#444443" transform="translate(0,0)"/>
<path d="" fill="#3C3B3C" transform="translate(0,0)"/>
<path d="M0 0 C2 1 2 1 2 1 Z " fill="#464645" transform="translate(798,439)"/>
<path d="" fill="#464648" transform="translate(0,0)"/>
<path d="" fill="#414040" transform="translate(0,0)"/>
<path d="" fill="#3F3E3E" transform="translate(0,0)"/>
<path d="M0 0 C2 1 2 1 2 1 Z " fill="#474747" transform="translate(152,424)"/>
<path d="M0 0 C2 1 2 1 2 1 Z " fill="#3E3D3D" transform="translate(404,423)"/>
<path d="" fill="#454646" transform="translate(0,0)"/>
<path d="M0 0 C2 1 2 1 2 1 Z " fill="#484747" transform="translate(633,418)"/>
<path d="" fill="#444443" transform="translate(0,0)"/>
<path d="" fill="#474545" transform="translate(0,0)"/>
<path d="M0 0 C2 1 2 1 2 1 Z " fill="#464545" transform="translate(177,360)"/>
<path d="" fill="#444242" transform="translate(0,0)"/>
<path d="" fill="#414242" transform="translate(0,0)"/>
<path d="" fill="#464647" transform="translate(0,0)"/>
<path d="" fill="#454444" transform="translate(0,0)"/>
<path d="" fill="#484746" transform="translate(0,0)"/>
<path d="M0 0 C2 1 2 1 2 1 Z " fill="#484746" transform="translate(658,277)"/>
<path d="M0 0 C2 1 2 1 2 1 Z " fill="#4F4E4D" transform="translate(577,247)"/>
<path d="M0 0 C2 1 2 1 2 1 Z " fill="#494848" transform="translate(545,243)"/>
<path d="M0 0 C2 1 2 1 2 1 Z " fill="#484846" transform="translate(240,240)"/>
<path d="M0 0 C2 1 2 1 2 1 Z " fill="#494847" transform="translate(268,232)"/>
<path d="M0 0 C2 1 2 1 2 1 Z " fill="#40403F" transform="translate(480,225)"/>
<path d="M0 0 C2 1 2 1 2 1 Z " fill="#404140" transform="translate(469,225)"/>
<path d="M0 0 C2 1 2 1 2 1 Z " fill="#474745" transform="translate(528,224)"/>
<path d="M0 0 C2 1 2 1 2 1 Z " fill="#464445" transform="translate(520,224)"/>
<path d="M0 0 C2 1 2 1 2 1 Z " fill="#403E3F" transform="translate(357,223)"/>
<path d="" fill="#454445" transform="translate(0,0)"/>
<path d="" fill="#434242" transform="translate(0,0)"/>
<path d="" fill="#363536" transform="translate(0,0)"/>
<path d="" fill="#343433" transform="translate(0,0)"/>
<path d="" fill="#2F2F2E" transform="translate(0,0)"/>
<path d="" fill="#323332" transform="translate(0,0)"/>
<path d="" fill="#3B3A38" transform="translate(0,0)"/>
<path d="" fill="#393938" transform="translate(0,0)"/>
<path d="" fill="#323332" transform="translate(0,0)"/>
<path d="" fill="#3A393A" transform="translate(0,0)"/>
<path d="" fill="#413F40" transform="translate(0,0)"/>
<path d="" fill="#454243" transform="translate(0,0)"/>
<path d="" fill="#454344" transform="translate(0,0)"/>
<path d="" fill="#454445" transform="translate(0,0)"/>
<path d="" fill="#454544" transform="translate(0,0)"/>
<path d="" fill="#464544" transform="translate(0,0)"/>
<path d="" fill="#474445" transform="translate(0,0)"/>
<path d="" fill="#424242" transform="translate(0,0)"/>
<path d="" fill="#434141" transform="translate(0,0)"/>
<path d="" fill="#434141" transform="translate(0,0)"/>
<path d="" fill="#454341" transform="translate(0,0)"/>
<path d="" fill="#444341" transform="translate(0,0)"/>
<path d="" fill="#414042" transform="translate(0,0)"/>
<path d="" fill="#413F41" transform="translate(0,0)"/>
<path d="" fill="#403F40" transform="translate(0,0)"/>
<path d="" fill="#403F40" transform="translate(0,0)"/>
<path d="" fill="#414040" transform="translate(0,0)"/>
<path d="" fill="#4E4E4C" transform="translate(0,0)"/>
<path d="" fill="#514F4F" transform="translate(0,0)"/>
<path d="" fill="#4C4D4C" transform="translate(0,0)"/>
<path d="" fill="#4A4949" transform="translate(0,0)"/>
<path d="" fill="#41413F" transform="translate(0,0)"/>
<path d="" fill="#4C4D4C" transform="translate(0,0)"/>
<path d="" fill="#4D4D4B" transform="translate(0,0)"/>
<path d="" fill="#434242" transform="translate(0,0)"/>
<path d="" fill="#464644" transform="translate(0,0)"/>
<path d="" fill="#464446" transform="translate(0,0)"/>
<path d="" fill="#464544" transform="translate(0,0)"/>
<path d="" fill="#474446" transform="translate(0,0)"/>
<path d="" fill="#3B3C3C" transform="translate(0,0)"/>
<path d="" fill="#454747" transform="translate(0,0)"/>
<path d="" fill="#494646" transform="translate(0,0)"/>
<path d="" fill="#444444" transform="translate(0,0)"/>
<path d="" fill="#464343" transform="translate(0,0)"/>
<path d="" fill="#454343" transform="translate(0,0)"/>
<path d="" fill="#4A4B4A" transform="translate(0,0)"/>
<path d="" fill="#464544" transform="translate(0,0)"/>
<path d="" fill="#494746" transform="translate(0,0)"/>
<path d="" fill="#4B4749" transform="translate(0,0)"/>
<path d="" fill="#4B4948" transform="translate(0,0)"/>
<path d="" fill="#474644" transform="translate(0,0)"/>
<path d="" fill="#4A4948" transform="translate(0,0)"/>
<path d="" fill="#454645" transform="translate(0,0)"/>
<path d="" fill="#404042" transform="translate(0,0)"/>
<path d="" fill="#474644" transform="translate(0,0)"/>
<path d="" fill="#444643" transform="translate(0,0)"/>
<path d="" fill="#464645" transform="translate(0,0)"/>
<path d="" fill="#444542" transform="translate(0,0)"/>
<path d="" fill="#474844" transform="translate(0,0)"/>
<path d="" fill="#474647" transform="translate(0,0)"/>
<path d="" fill="#464645" transform="translate(0,0)"/>
<path d="" fill="#474645" transform="translate(0,0)"/>
<path d="" fill="#484745" transform="translate(0,0)"/>
<path d="" fill="#4B4A4B" transform="translate(0,0)"/>
<path d="" fill="#444443" transform="translate(0,0)"/>
<path d="" fill="#484847" transform="translate(0,0)"/>
<path d="" fill="#484544" transform="translate(0,0)"/>
<path d="" fill="#3F3D3D" transform="translate(0,0)"/>
<path d="" fill="#494747" transform="translate(0,0)"/>
<path d="" fill="#474544" transform="translate(0,0)"/>
<path d="" fill="#454345" transform="translate(0,0)"/>
<path d="" fill="#474846" transform="translate(0,0)"/>
<path d="" fill="#414243" transform="translate(0,0)"/>
<path d="" fill="#474548" transform="translate(0,0)"/>
<path d="" fill="#484747" transform="translate(0,0)"/>
<path d="" fill="#4D4C4A" transform="translate(0,0)"/>
<path d="" fill="#464546" transform="translate(0,0)"/>
<path d="" fill="#464445" transform="translate(0,0)"/>
<path d="" fill="#424042" transform="translate(0,0)"/>
<path d="" fill="#454444" transform="translate(0,0)"/>
<path d="" fill="#494646" transform="translate(0,0)"/>
<path d="" fill="#454441" transform="translate(0,0)"/>
<path d="" fill="#4D4A4D" transform="translate(0,0)"/>
<path d="" fill="#4D4B4A" transform="translate(0,0)"/>
<path d="" fill="#514D4B" transform="translate(0,0)"/>
<path d="" fill="#4C4C4D" transform="translate(0,0)"/>
<path d="" fill="#4D4B4A" transform="translate(0,0)"/>
<path d="" fill="#4D4D4B" transform="translate(0,0)"/>
<path d="" fill="#4B4C49" transform="translate(0,0)"/>
<path d="" fill="#484746" transform="translate(0,0)"/>
<path d="" fill="#434444" transform="translate(0,0)"/>
<path d="" fill="#414545" transform="translate(0,0)"/>
<path d="" fill="#4A4848" transform="translate(0,0)"/>
<path d="" fill="#3F3F3F" transform="translate(0,0)"/>
<path d="" fill="#4B4A48" transform="translate(0,0)"/>
<path d="" fill="#454544" transform="translate(0,0)"/>
<path d="" fill="#434043" transform="translate(0,0)"/>
<path d="" fill="#3D3D3C" transform="translate(0,0)"/>
<path d="" fill="#484744" transform="translate(0,0)"/>
<path d="" fill="#403F3D" transform="translate(0,0)"/>
<path d="" fill="#414143" transform="translate(0,0)"/>
<path d="" fill="#414140" transform="translate(0,0)"/>
<path d="" fill="#434443" transform="translate(0,0)"/>
<path d="" fill="#3D3C3C" transform="translate(0,0)"/>
<path d="" fill="#424342" transform="translate(0,0)"/>
<path d="" fill="#403E3E" transform="translate(0,0)"/>
<path d="" fill="#4C4B4B" transform="translate(0,0)"/>
<path d="" fill="#434244" transform="translate(0,0)"/>
<path d="" fill="#474344" transform="translate(0,0)"/>
<path d="" fill="#494846" transform="translate(0,0)"/>
<path d="" fill="#4F4E4C" transform="translate(0,0)"/>
<path d="" fill="#3B3B39" transform="translate(0,0)"/>
<path d="" fill="#3B3B3C" transform="translate(0,0)"/>
<path d="" fill="#4B4A49" transform="translate(0,0)"/>
<path d="" fill="#4D4B4B" transform="translate(0,0)"/>
<path d="" fill="#454545" transform="translate(0,0)"/>
<path d="" fill="#444343" transform="translate(0,0)"/>
<path d="" fill="#413F40" transform="translate(0,0)"/>
<path d="" fill="#4B4A48" transform="translate(0,0)"/>
<path d="" fill="#4B4847" transform="translate(0,0)"/>
<path d="" fill="#464444" transform="translate(0,0)"/>
<path d="" fill="#494847" transform="translate(0,0)"/>
<path d="" fill="#474546" transform="translate(0,0)"/>
<path d="" fill="#474444" transform="translate(0,0)"/>
<path d="" fill="#464545" transform="translate(0,0)"/>
<path d="" fill="#454444" transform="translate(0,0)"/>
<path d="" fill="#444343" transform="translate(0,0)"/>
<path d="" fill="#414142" transform="translate(0,0)"/>
<path d="" fill="#3C3C3B" transform="translate(0,0)"/>
<path d="" fill="#3C3B3D" transform="translate(0,0)"/>
<path d="" fill="#4D4B4A" transform="translate(0,0)"/>
<path d="" fill="#414140" transform="translate(0,0)"/>
<path d="" fill="#464648" transform="translate(0,0)"/>
<path d="" fill="#4A4948" transform="translate(0,0)"/>
<path d="" fill="#494746" transform="translate(0,0)"/>
<path d="" fill="#434242" transform="translate(0,0)"/>
<path d="" fill="#414041" transform="translate(0,0)"/>
<path d="" fill="#3B3A3C" transform="translate(0,0)"/>
<path d="" fill="#484546" transform="translate(0,0)"/>
<path d="" fill="#484747" transform="translate(0,0)"/>
<path d="" fill="#474747" transform="translate(0,0)"/>
<path d="" fill="#4A4948" transform="translate(0,0)"/>
<path d="" fill="#3E403E" transform="translate(0,0)"/>
<path d="" fill="#454546" transform="translate(0,0)"/>
<path d="" fill="#454443" transform="translate(0,0)"/>
<path d="" fill="#464845" transform="translate(0,0)"/>
<path d="" fill="#464545" transform="translate(0,0)"/>
<path d="" fill="#434342" transform="translate(0,0)"/>
<path d="" fill="#434041" transform="translate(0,0)"/>
<path d="" fill="#3F3F3D" transform="translate(0,0)"/>
<path d="" fill="#434344" transform="translate(0,0)"/>
<path d="" fill="#3C3D3C" transform="translate(0,0)"/>
<path d="" fill="#393838" transform="translate(0,0)"/>
<path d="" fill="#3F3F3F" transform="translate(0,0)"/>
<path d="" fill="#434042" transform="translate(0,0)"/>
<path d="" fill="#444043" transform="translate(0,0)"/>
<path d="" fill="#413F40" transform="translate(0,0)"/>
<path d="" fill="#434141" transform="translate(0,0)"/>
<path d="" fill="#4A4848" transform="translate(0,0)"/>
<path d="" fill="#464846" transform="translate(0,0)"/>
<path d="" fill="#363536" transform="translate(0,0)"/>
<path d="" fill="#3E3E3E" transform="translate(0,0)"/>
<path d="" fill="#4B4949" transform="translate(0,0)"/>
<path d="" fill="#464344" transform="translate(0,0)"/>
<path d="" fill="#434140" transform="translate(0,0)"/>
<path d="" fill="#444243" transform="translate(0,0)"/>
<path d="" fill="#424140" transform="translate(0,0)"/>
<path d="" fill="#3A3C3A" transform="translate(0,0)"/>
<path d="" fill="#41403F" transform="translate(0,0)"/>
<path d="" fill="#3A3938" transform="translate(0,0)"/>
<path d="" fill="#424242" transform="translate(0,0)"/>
<path d="" fill="#444343" transform="translate(0,0)"/>
<path d="" fill="#3A3836" transform="translate(0,0)"/>
<path d="" fill="#3C3B3E" transform="translate(0,0)"/>
<path d="" fill="#484647" transform="translate(0,0)"/>
<path d="" fill="#3C3D3C" transform="translate(0,0)"/>
<path d="" fill="#484648" transform="translate(0,0)"/>
<path d="" fill="#444242" transform="translate(0,0)"/>
<path d="" fill="#3E3D3C" transform="translate(0,0)"/>
<path d="" fill="#413F41" transform="translate(0,0)"/>
<path d="" fill="#424140" transform="translate(0,0)"/>
<path d="" fill="#414040" transform="translate(0,0)"/>
<path d="" fill="#3D3D3D" transform="translate(0,0)"/>
<path d="" fill="#424041" transform="translate(0,0)"/>
<path d="" fill="#454643" transform="translate(0,0)"/>
<path d="" fill="#434342" transform="translate(0,0)"/>
<path d="" fill="#3F4040" transform="translate(0,0)"/>
<path d="" fill="#474445" transform="translate(0,0)"/>
<path d="" fill="#464444" transform="translate(0,0)"/>
<path d="" fill="#484644" transform="translate(0,0)"/>
<path d="" fill="#434141" transform="translate(0,0)"/>
<path d="" fill="#484748" transform="translate(0,0)"/>
<path d="" fill="#3D3C3D" transform="translate(0,0)"/>
<path d="" fill="#424041" transform="translate(0,0)"/>
<path d="" fill="#454343" transform="translate(0,0)"/>
<path d="" fill="#474745" transform="translate(0,0)"/>
<path d="" fill="#464546" transform="translate(0,0)"/>
<path d="" fill="#414140" transform="translate(0,0)"/>
<path d="" fill="#454242" transform="translate(0,0)"/>
<path d="" fill="#3B3C3C" transform="translate(0,0)"/>
<path d="" fill="#3F3F3F" transform="translate(0,0)"/>
<path d="" fill="#3F403E" transform="translate(0,0)"/>
<path d="" fill="#484746" transform="translate(0,0)"/>
<path d="" fill="#38393A" transform="translate(0,0)"/>
<path d="" fill="#494848" transform="translate(0,0)"/>
<path d="" fill="#444242" transform="translate(0,0)"/>
<path d="" fill="#413E3F" transform="translate(0,0)"/>
<path d="" fill="#3D3D3E" transform="translate(0,0)"/>
<path d="" fill="#3F3E3F" transform="translate(0,0)"/>
<path d="" fill="#3E3E3D" transform="translate(0,0)"/>
<path d="" fill="#3F3C3E" transform="translate(0,0)"/>
<path d="" fill="#474445" transform="translate(0,0)"/>
<path d="" fill="#484647" transform="translate(0,0)"/>
<path d="" fill="#4A4848" transform="translate(0,0)"/>
<path d="" fill="#464646" transform="translate(0,0)"/>
<path d="" fill="#484748" transform="translate(0,0)"/>
<path d="" fill="#4A4949" transform="translate(0,0)"/>
<path d="" fill="#4D4A48" transform="translate(0,0)"/>
<path d="" fill="#4A4847" transform="translate(0,0)"/>
<path d="" fill="#474747" transform="translate(0,0)"/>
<path d="" fill="#474646" transform="translate(0,0)"/>
<path d="" fill="#484745" transform="translate(0,0)"/>
<path d="" fill="#3B3C3C" transform="translate(0,0)"/>
<path d="" fill="#3C3C3C" transform="translate(0,0)"/>
<path d="" fill="#4A4947" transform="translate(0,0)"/>
<path d="" fill="#474645" transform="translate(0,0)"/>
<path d="" fill="#3A3D3B" transform="translate(0,0)"/>
<path d="" fill="#3B3C3B" transform="translate(0,0)"/>
<path d="" fill="#434242" transform="translate(0,0)"/>
<path d="" fill="#444444" transform="translate(0,0)"/>
<path d="" fill="#3B3A3D" transform="translate(0,0)"/>
<path d="" fill="#474644" transform="translate(0,0)"/>
<path d="" fill="#434243" transform="translate(0,0)"/>
<path d="" fill="#3A3B3A" transform="translate(0,0)"/>
<path d="" fill="#3A3B3A" transform="translate(0,0)"/>
<path d="" fill="#3C3B3A" transform="translate(0,0)"/>
<path d="" fill="#464746" transform="translate(0,0)"/>
<path d="" fill="#444442" transform="translate(0,0)"/>
<path d="" fill="#454545" transform="translate(0,0)"/>
<path d="" fill="#3F3D3D" transform="translate(0,0)"/>
<path d="" fill="#454543" transform="translate(0,0)"/>
<path d="" fill="#4B4746" transform="translate(0,0)"/>
<path d="" fill="#3D3C3C" transform="translate(0,0)"/>
<path d="" fill="#484847" transform="translate(0,0)"/>
<path d="" fill="#3D3B3A" transform="translate(0,0)"/>
<path d="" fill="#434143" transform="translate(0,0)"/>
<path d="" fill="#454646" transform="translate(0,0)"/>
<path d="" fill="#454445" transform="translate(0,0)"/>
<path d="" fill="#474544" transform="translate(0,0)"/>
<path d="" fill="#424344" transform="translate(0,0)"/>
<path d="" fill="#444544" transform="translate(0,0)"/>
<path d="" fill="#474443" transform="translate(0,0)"/>
<path d="" fill="#3B3938" transform="translate(0,0)"/>
<path d="" fill="#3B3D3C" transform="translate(0,0)"/>
<path d="" fill="#3B3D3C" transform="translate(0,0)"/>
<path d="" fill="#3A3B39" transform="translate(0,0)"/>
<path d="" fill="#3F3C3D" transform="translate(0,0)"/>
<path d="" fill="#3D3E3E" transform="translate(0,0)"/>
<path d="" fill="#444443" transform="translate(0,0)"/>
<path d="" fill="#454544" transform="translate(0,0)"/>
<path d="" fill="#454442" transform="translate(0,0)"/>
<path d="" fill="#494A49" transform="translate(0,0)"/>
<path d="" fill="#444544" transform="translate(0,0)"/>
<path d="" fill="#484848" transform="translate(0,0)"/>
<path d="" fill="#454643" transform="translate(0,0)"/>
<path d="" fill="#444543" transform="translate(0,0)"/>
<path d="" fill="#484748" transform="translate(0,0)"/>
<path d="" fill="#454443" transform="translate(0,0)"/>
<path d="" fill="#474745" transform="translate(0,0)"/>
<path d="" fill="#494847" transform="translate(0,0)"/>
<path d="" fill="#464644" transform="translate(0,0)"/>
<path d="" fill="#464542" transform="translate(0,0)"/>
<path d="" fill="#474847" transform="translate(0,0)"/>
<path d="" fill="#454643" transform="translate(0,0)"/>
<path d="" fill="#444443" transform="translate(0,0)"/>
<path d="" fill="#474546" transform="translate(0,0)"/>
<path d="" fill="#454345" transform="translate(0,0)"/>
<path d="" fill="#444344" transform="translate(0,0)"/>
<path d="" fill="#464445" transform="translate(0,0)"/>
<path d="" fill="#464445" transform="translate(0,0)"/>
<path d="" fill="#434343" transform="translate(0,0)"/>
<path d="" fill="#444444" transform="translate(0,0)"/>
<path d="" fill="#3A3B3B" transform="translate(0,0)"/>
<path d="" fill="#464647" transform="translate(0,0)"/>
<path d="" fill="#454342" transform="translate(0,0)"/>
<path d="" fill="#454543" transform="translate(0,0)"/>
<path d="" fill="#464445" transform="translate(0,0)"/>
<path d="" fill="#414142" transform="translate(0,0)"/>
<path d="" fill="#444344" transform="translate(0,0)"/>
<path d="" fill="#464748" transform="translate(0,0)"/>
<path d="" fill="#4A4A48" transform="translate(0,0)"/>
<path d="" fill="#454946" transform="translate(0,0)"/>
<path d="" fill="#464547" transform="translate(0,0)"/>
<path d="" fill="#474846" transform="translate(0,0)"/>
<path d="" fill="#474345" transform="translate(0,0)"/>
<path d="" fill="#434243" transform="translate(0,0)"/>
<path d="" fill="#464543" transform="translate(0,0)"/>
<path d="" fill="#454245" transform="translate(0,0)"/>
<path d="" fill="#454242" transform="translate(0,0)"/>
<path d="" fill="#454648" transform="translate(0,0)"/>
<path d="" fill="#444441" transform="translate(0,0)"/>
<path d="" fill="#434545" transform="translate(0,0)"/>
<path d="" fill="#464643" transform="translate(0,0)"/>
<path d="" fill="#4E4C4D" transform="translate(0,0)"/>
<path d="" fill="#4A494A" transform="translate(0,0)"/>
<path d="" fill="#474648" transform="translate(0,0)"/>
<path d="" fill="#494847" transform="translate(0,0)"/>
<path d="" fill="#474647" transform="translate(0,0)"/>
<path d="" fill="#464445" transform="translate(0,0)"/>
<path d="" fill="#464746" transform="translate(0,0)"/>
<path d="" fill="#464444" transform="translate(0,0)"/>
<path d="" fill="#444443" transform="translate(0,0)"/>
<path d="" fill="#494645" transform="translate(0,0)"/>
<path d="" fill="#484646" transform="translate(0,0)"/>
<path d="" fill="#474645" transform="translate(0,0)"/>
<path d="" fill="#434342" transform="translate(0,0)"/>
<path d="" fill="#484644" transform="translate(0,0)"/>
<path d="" fill="#454544" transform="translate(0,0)"/>
<path d="" fill="#474846" transform="translate(0,0)"/>
<path d="" fill="#454645" transform="translate(0,0)"/>
<path d="" fill="#444443" transform="translate(0,0)"/>
<path d="" fill="#474644" transform="translate(0,0)"/>
<path d="" fill="#454746" transform="translate(0,0)"/>
<path d="" fill="#4A4746" transform="translate(0,0)"/>
<path d="" fill="#434240" transform="translate(0,0)"/>
<path d="" fill="#474648" transform="translate(0,0)"/>
<path d="" fill="#444444" transform="translate(0,0)"/>
<path d="" fill="#474444" transform="translate(0,0)"/>
<path d="" fill="#454242" transform="translate(0,0)"/>
<path d="" fill="#464445" transform="translate(0,0)"/>
<path d="" fill="#4B4B49" transform="translate(0,0)"/>
<path d="" fill="#444142" transform="translate(0,0)"/>
<path d="" fill="#454547" transform="translate(0,0)"/>
<path d="" fill="#464343" transform="translate(0,0)"/>
<path d="" fill="#494947" transform="translate(0,0)"/>
<path d="" fill="#4B4B48" transform="translate(0,0)"/>
<path d="" fill="#4B494B" transform="translate(0,0)"/>
<path d="" fill="#464646" transform="translate(0,0)"/>
<path d="" fill="#4A4848" transform="translate(0,0)"/>
<path d="" fill="#474744" transform="translate(0,0)"/>
<path d="" fill="#4E4C4A" transform="translate(0,0)"/>
<path d="" fill="#4A4B4B" transform="translate(0,0)"/>
<path d="" fill="#4B4A4B" transform="translate(0,0)"/>
<path d="" fill="#4D4B4B" transform="translate(0,0)"/>
<path d="" fill="#4E4C4B" transform="translate(0,0)"/>
<path d="" fill="#464446" transform="translate(0,0)"/>
<path d="" fill="#4A4749" transform="translate(0,0)"/>
<path d="" fill="#484848" transform="translate(0,0)"/>
<path d="" fill="#4A4B48" transform="translate(0,0)"/>
<path d="" fill="#4A4949" transform="translate(0,0)"/>
<path d="" fill="#494948" transform="translate(0,0)"/>
<path d="" fill="#494746" transform="translate(0,0)"/>
<path d="" fill="#494847" transform="translate(0,0)"/>
<path d="" fill="#4B4A48" transform="translate(0,0)"/>
<path d="" fill="#494947" transform="translate(0,0)"/>
<path d="" fill="#434142" transform="translate(0,0)"/>
<path d="" fill="#474947" transform="translate(0,0)"/>
<path d="" fill="#494949" transform="translate(0,0)"/>
<path d="" fill="#474545" transform="translate(0,0)"/>
<path d="" fill="#454745" transform="translate(0,0)"/>
<path d="" fill="#484847" transform="translate(0,0)"/>
<path d="" fill="#4A4545" transform="translate(0,0)"/>
<path d="" fill="#4D4D4C" transform="translate(0,0)"/>
<path d="" fill="#484847" transform="translate(0,0)"/>
<path d="" fill="#4A4A48" transform="translate(0,0)"/>
<path d="" fill="#494A49" transform="translate(0,0)"/>
<path d="" fill="#494A47" transform="translate(0,0)"/>
<path d="" fill="#454646" transform="translate(0,0)"/>
<path d="" fill="#4E4C4C" transform="translate(0,0)"/>
<path d="" fill="#454645" transform="translate(0,0)"/>
<path d="" fill="#494A49" transform="translate(0,0)"/>
<path d="" fill="#3F3E3E" transform="translate(0,0)"/>
<path d="" fill="#4A4747" transform="translate(0,0)"/>
<path d="" fill="#4C4B49" transform="translate(0,0)"/>
<path d="" fill="#474549" transform="translate(0,0)"/>
<path d="" fill="#4C4C4A" transform="translate(0,0)"/>
<path d="" fill="#4B494A" transform="translate(0,0)"/>
<path d="" fill="#464645" transform="translate(0,0)"/>
<path d="" fill="#454545" transform="translate(0,0)"/>
<path d="" fill="#464647" transform="translate(0,0)"/>
<path d="" fill="#484645" transform="translate(0,0)"/>
<path d="" fill="#424041" transform="translate(0,0)"/>
<path d="" fill="#404241" transform="translate(0,0)"/>
<path d="" fill="#4A494A" transform="translate(0,0)"/>
<path d="" fill="#484647" transform="translate(0,0)"/>
<path d="" fill="#3E3E3E" transform="translate(0,0)"/>
<path d="" fill="#3D3C3D" transform="translate(0,0)"/>
<path d="" fill="#464645" transform="translate(0,0)"/>
<path d="" fill="#3F3F3F" transform="translate(0,0)"/>
<path d="" fill="#404141" transform="translate(0,0)"/>
<path d="" fill="#484646" transform="translate(0,0)"/>
<path d="" fill="#414340" transform="translate(0,0)"/>
<path d="" fill="#41413F" transform="translate(0,0)"/>
<path d="" fill="#494846" transform="translate(0,0)"/>
<path d="" fill="#454446" transform="translate(0,0)"/>
<path d="" fill="#403F3E" transform="translate(0,0)"/>
<path d="" fill="#454847" transform="translate(0,0)"/>
<path d="" fill="#423E42" transform="translate(0,0)"/>
<path d="" fill="#42403F" transform="translate(0,0)"/>
<path d="" fill="#464644" transform="translate(0,0)"/>
<path d="" fill="#444446" transform="translate(0,0)"/>
<path d="" fill="#4E4F51" transform="translate(0,0)"/>
<path d="" fill="#444345" transform="translate(0,0)"/>
<path d="" fill="#454645" transform="translate(0,0)"/>
<path d="" fill="#444444" transform="translate(0,0)"/>
<path d="" fill="#444443" transform="translate(0,0)"/>
<path d="" fill="#454544" transform="translate(0,0)"/>
<path d="" fill="#474646" transform="translate(0,0)"/>
<path d="" fill="#474846" transform="translate(0,0)"/>
<path d="" fill="#484947" transform="translate(0,0)"/>
<path d="" fill="#484949" transform="translate(0,0)"/>
<path d="" fill="#494646" transform="translate(0,0)"/>
<path d="" fill="#494747" transform="translate(0,0)"/>
<path d="" fill="#4C4A4B" transform="translate(0,0)"/>
<path d="" fill="#484748" transform="translate(0,0)"/>
<path d="" fill="#444342" transform="translate(0,0)"/>
</svg>
