<?xml version="1.0" standalone="no"?>
<!DOCTYPE svg PUBLIC "-//W3C//DTD SVG 20010904//EN"
 "http://www.w3.org/TR/2001/REC-SVG-20010904/DTD/svg10.dtd">
<svg version="1.0" xmlns="http://www.w3.org/2000/svg"
 width="1024.000000pt" height="1024.000000pt" viewBox="0 0 1024.000000 1024.000000"
 preserveAspectRatio="xMidYMid meet">

<g transform="translate(0.000000,1024.000000) scale(0.100000,-0.100000)"
fill="#000000" stroke="none">
<path d="M8118 8667 c-82 -35 -292 -163 -451 -277 -284 -202 -646 -520 -861
-756 -55 -60 -110 -120 -122 -133 l-23 -25 -23 21 c-41 37 -202 138 -304 190
-259 132 -535 208 -889 243 -60 6 -256 11 -434 11 l-323 0 -67 60 c-252 231
-560 387 -878 444 -98 18 -356 31 -396 21 -35 -8 -57 -33 -57 -63 0 -18 27
-53 98 -127 138 -144 243 -259 238 -263 -2 -2 -34 1 -72 7 -37 6 -147 11 -243
11 -270 -1 -467 -44 -676 -148 -201 -100 -291 -202 -220 -249 22 -15 39 -15
157 -4 147 13 351 10 308 -5 -14 -4 -71 -32 -128 -61 -414 -213 -788 -670
-1007 -1233 -57 -146 -95 -285 -95 -346 0 -41 22 -65 51 -58 12 3 71 63 132
134 62 70 113 126 116 124 2 -3 -1 -10 -6 -17 -16 -21 -88 -204 -126 -323
-102 -317 -150 -607 -151 -910 0 -205 16 -330 48 -378 48 -71 85 -40 187 158
35 69 67 125 72 125 4 0 7 -24 7 -52 0 -126 60 -391 125 -553 102 -252 280
-484 355 -460 70 22 132 198 148 421 l7 99 28 -75 c35 -97 81 -175 113 -196
24 -16 27 -16 52 3 71 52 159 313 163 482 2 100 16 98 24 -4 10 -134 0 -340
-24 -450 -52 -244 -190 -520 -371 -741 -76 -93 -82 -105 -67 -134 21 -40 40
-46 109 -31 57 11 133 35 180 55 13 6 1 -27 -41 -116 -114 -238 -240 -587
-281 -778 -50 -225 -65 -464 -35 -536 29 -69 -183 -64 2595 -64 l2510 0 37 34
c34 31 37 39 41 97 2 35 -3 120 -12 189 -38 291 -143 642 -346 1160 -107 275
-259 679 -294 788 l-18 52 63 107 c212 363 346 800 388 1263 6 63 11 120 11
127 0 6 9 15 20 18 12 4 65 39 118 79 494 368 768 846 849 1481 22 176 25 769
5 965 -24 232 -69 446 -113 537 -38 78 -107 99 -201 60z m71 -250 c58 -189 86
-520 78 -916 -6 -269 -18 -396 -52 -566 -95 -466 -329 -841 -709 -1137 l-61
-47 -7 57 c-4 31 -14 118 -23 192 -23 196 -60 364 -117 535 -104 310 -237 542
-434 754 l-68 73 250 247 c303 301 508 474 794 674 92 65 308 197 321 197 4 0
17 -29 28 -63z m-2630 -693 c703 -102 1190 -432 1461 -989 283 -580 312 -1345
79 -2021 -178 -516 -482 -919 -805 -1065 -116 -53 -207 -72 -334 -72 -150 0
-239 21 -369 84 -89 43 -117 63 -185 133 -120 120 -165 217 -181 387 l-7 76
43 16 c118 45 300 193 387 315 65 91 91 162 92 245 0 80 -15 120 -67 178 -87
97 -218 147 -405 156 l-118 6 0 1290 0 1290 151 -6 c83 -4 199 -14 258 -23z
m-1372 -1590 c170 -81 212 -314 79 -447 -110 -110 -269 -115 -384 -12 -70 63
-96 127 -90 221 6 96 44 164 120 217 86 60 176 67 275 21z m951 -1413 c1 -239
-1 -438 -6 -443 -13 -13 -140 20 -214 57 -217 109 -377 306 -381 470 -4 161
114 282 318 329 88 20 123 23 210 22 l70 -1 3 -434z m12 -907 c0 -19 -141
-163 -204 -209 -76 -54 -190 -109 -271 -130 -124 -34 -379 -28 -429 8 -13 9 3
11 77 9 265 -9 526 117 722 348 l60 70 22 -42 c12 -24 22 -48 23 -54z m1705
19 c13 -54 149 -422 255 -693 203 -518 297 -824 339 -1105 6 -38 13 -85 16
-102 l6 -33 -1136 0 -1135 0 0 614 0 615 58 7 c160 19 317 98 437 220 l53 54
74 -11 c101 -16 293 -6 393 20 99 26 237 92 330 159 84 59 218 183 260 241 17
22 33 41 36 41 4 0 10 -12 14 -27z m-1635 -112 c0 -14 102 -112 166 -157 34
-24 87 -56 119 -70 l58 -27 -34 -28 c-71 -59 -180 -105 -291 -124 l-38 -6 0
211 c0 133 4 210 10 210 6 0 10 -4 10 -9z"/>
<path d="M6083 6166 c-141 -46 -221 -162 -211 -307 21 -293 409 -367 546 -104
21 40 26 64 26 125 1 85 -20 142 -73 203 -65 73 -199 112 -288 83z"/>
</g>
</svg>
